ISO-10303-21;
HEADER;
FILE_DESCRIPTION(('Open CASCADE Model'),'2;1');
FILE_NAME('Open CASCADE Shape Model','2026-08-30T21:53:22',('Author'),(
    'Open CASCADE'),'Open CASCADE STEP processor 7.9','Open CASCADE 7.9'
  ,'Unknown');
FILE_SCHEMA(('AUTOMOTIVE_DESIGN { 1 0 10303 214 1 1 1 1 }'));
ENDSEC;
DATA;
#1 = APPLICATION_PROTOCOL_DEFINITION('international standard',
  'automotive_design',2000,#2);
#2 = APPLICATION_CONTEXT(
  'core data for automotive mechanical design processes');
#3 = SHAPE_DEFINITION_REPRESENTATION(#4,#10);
#4 = PRODUCT_DEFINITION_SHAPE('','',#5);
#5 = PRODUCT_DEFINITION('design','',#6,#9);
#6 = PRODUCT_DEFINITION_FORMATION('','',#7);
#7 = PRODUCT('Open CASCADE STEP translator 7.9 4',
  'Open CASCADE STEP translator 7.9 4','',(#8));
#8 = PRODUCT_CONTEXT('',#2,'mechanical');
#9 = PRODUCT_DEFINITION_CONTEXT('part definition',#2,'design');
#10 = ADVANCED_BREP_SHAPE_REPRESENTATION('',(#11,#15),#914);
#11 = AXIS2_PLACEMENT_3D('',#12,#13,#14);
#12 = CARTESIAN_POINT('',(0.,0.,0.));
#13 = DIRECTION('',(0.,0.,1.));
#14 = DIRECTION('',(1.,0.,-0.));
#15 = MANIFOLD_SOLID_BREP('',#16);
#16 = CLOSED_SHELL('',(#17,#101,#462,#466,#505,#677,#849,#910));
#17 = ADVANCED_FACE('',(#18),#31,.T.);
#18 = FACE_BOUND('',#19,.T.);
#19 = EDGE_LOOP('',(#20,#53,#73,#100));
#20 = ORIENTED_EDGE('',*,*,#21,.T.);
#21 = EDGE_CURVE('',#22,#22,#24,.T.);
#22 = VERTEX_POINT('',#23);
#23 = CARTESIAN_POINT('',(12.65,0.,0.));
#24 = SURFACE_CURVE('',#25,(#30,#42),.PCURVE_S1.);
#25 = CIRCLE('',#26,12.65);
#26 = AXIS2_PLACEMENT_3D('',#27,#28,#29);
#27 = CARTESIAN_POINT('',(0.,0.,0.));
#28 = DIRECTION('',(0.,0.,1.));
#29 = DIRECTION('',(1.,0.,0.));
#30 = PCURVE('',#31,#36);
#31 = CONICAL_SURFACE('',#32,12.65,0.271849202656);
#32 = AXIS2_PLACEMENT_3D('',#33,#34,#35);
#33 = CARTESIAN_POINT('',(0.,0.,0.));
#34 = DIRECTION('',(-0.,-0.,-1.));
#35 = DIRECTION('',(1.,0.,0.));
#36 = DEFINITIONAL_REPRESENTATION('',(#37),#41);
#37 = LINE('',#38,#39);
#38 = CARTESIAN_POINT('',(-0.,-0.));
#39 = VECTOR('',#40,1.);
#40 = DIRECTION('',(-1.,-0.));
#41 = ( GEOMETRIC_REPRESENTATION_CONTEXT(2) 
PARAMETRIC_REPRESENTATION_CONTEXT() REPRESENTATION_CONTEXT('2D SPACE',''
  ) );
#42 = PCURVE('',#43,#48);
#43 = CYLINDRICAL_SURFACE('',#44,12.65);
#44 = AXIS2_PLACEMENT_3D('',#45,#46,#47);
#45 = CARTESIAN_POINT('',(0.,0.,-15.));
#46 = DIRECTION('',(-0.,-0.,-1.));
#47 = DIRECTION('',(1.,0.,0.));
#48 = DEFINITIONAL_REPRESENTATION('',(#49),#52);
#49 = B_SPLINE_CURVE_WITH_KNOTS('',1,(#50,#51),.UNSPECIFIED.,.F.,.F.,(2,
    2),(0.,6.28318530718),.PIECEWISE_BEZIER_KNOTS.);
#50 = CARTESIAN_POINT('',(0.,-15.));
#51 = CARTESIAN_POINT('',(-6.28318530718,-15.));
#52 = ( GEOMETRIC_REPRESENTATION_CONTEXT(2) 
PARAMETRIC_REPRESENTATION_CONTEXT() REPRESENTATION_CONTEXT('2D SPACE',''
  ) );
#53 = ORIENTED_EDGE('',*,*,#54,.T.);
#54 = EDGE_CURVE('',#22,#55,#57,.T.);
#55 = VERTEX_POINT('',#56);
#56 = CARTESIAN_POINT('',(1.5,0.,40.));
#57 = SEAM_CURVE('',#58,(#61,#67),.PCURVE_S1.);
#58 = B_SPLINE_CURVE_WITH_KNOTS('',1,(#59,#60),.UNSPECIFIED.,.F.,.F.,(2,
    2),(0.,1.),.PIECEWISE_BEZIER_KNOTS.);
#59 = CARTESIAN_POINT('',(12.65,0.,0.));
#60 = CARTESIAN_POINT('',(1.5,0.,40.));
#61 = PCURVE('',#31,#62);
#62 = DEFINITIONAL_REPRESENTATION('',(#63),#66);
#63 = B_SPLINE_CURVE_WITH_KNOTS('',1,(#64,#65),.UNSPECIFIED.,.F.,.F.,(2,
    2),(0.,1.),.PIECEWISE_BEZIER_KNOTS.);
#64 = CARTESIAN_POINT('',(-6.28318530718,0.));
#65 = CARTESIAN_POINT('',(-6.28318530718,-40.));
#66 = ( GEOMETRIC_REPRESENTATION_CONTEXT(2) 
PARAMETRIC_REPRESENTATION_CONTEXT() REPRESENTATION_CONTEXT('2D SPACE',''
  ) );
#67 = PCURVE('',#31,#68);
#68 = DEFINITIONAL_REPRESENTATION('',(#69),#72);
#69 = B_SPLINE_CURVE_WITH_KNOTS('',1,(#70,#71),.UNSPECIFIED.,.F.,.F.,(2,
    2),(0.,1.),.PIECEWISE_BEZIER_KNOTS.);
#70 = CARTESIAN_POINT('',(0.,0.));
#71 = CARTESIAN_POINT('',(0.,-40.));
#72 = ( GEOMETRIC_REPRESENTATION_CONTEXT(2) 
PARAMETRIC_REPRESENTATION_CONTEXT() REPRESENTATION_CONTEXT('2D SPACE',''
  ) );
#73 = ORIENTED_EDGE('',*,*,#74,.F.);
#74 = EDGE_CURVE('',#55,#55,#75,.T.);
#75 = SURFACE_CURVE('',#76,(#81,#88),.PCURVE_S1.);
#76 = CIRCLE('',#77,1.5);
#77 = AXIS2_PLACEMENT_3D('',#78,#79,#80);
#78 = CARTESIAN_POINT('',(0.,0.,40.));
#79 = DIRECTION('',(0.,0.,1.));
#80 = DIRECTION('',(1.,0.,0.));
#81 = PCURVE('',#31,#82);
#82 = DEFINITIONAL_REPRESENTATION('',(#83),#87);
#83 = LINE('',#84,#85);
#84 = CARTESIAN_POINT('',(-0.,-40.));
#85 = VECTOR('',#86,1.);
#86 = DIRECTION('',(-1.,-0.));
#87 = ( GEOMETRIC_REPRESENTATION_CONTEXT(2) 
PARAMETRIC_REPRESENTATION_CONTEXT() REPRESENTATION_CONTEXT('2D SPACE',''
  ) );
#88 = PCURVE('',#89,#94);
#89 = PLANE('',#90);
#90 = AXIS2_PLACEMENT_3D('',#91,#92,#93);
#91 = CARTESIAN_POINT('',(0.,0.,40.));
#92 = DIRECTION('',(0.,0.,1.));
#93 = DIRECTION('',(1.,0.,0.));
#94 = DEFINITIONAL_REPRESENTATION('',(#95),#99);
#95 = CIRCLE('',#96,1.5);
#96 = AXIS2_PLACEMENT_2D('',#97,#98);
#97 = CARTESIAN_POINT('',(0.,0.));
#98 = DIRECTION('',(1.,0.));
#99 = ( GEOMETRIC_REPRESENTATION_CONTEXT(2) 
PARAMETRIC_REPRESENTATION_CONTEXT() REPRESENTATION_CONTEXT('2D SPACE',''
  ) );
#100 = ORIENTED_EDGE('',*,*,#54,.F.);
#101 = ADVANCED_FACE('',(#102,#156,#309),#43,.T.);
#102 = FACE_BOUND('',#103,.F.);
#103 = EDGE_LOOP('',(#104,#133,#154,#155));
#104 = ORIENTED_EDGE('',*,*,#105,.F.);
#105 = EDGE_CURVE('',#106,#106,#108,.T.);
#106 = VERTEX_POINT('',#107);
#107 = CARTESIAN_POINT('',(12.65,0.,-15.));
#108 = SURFACE_CURVE('',#109,(#114,#121),.PCURVE_S1.);
#109 = CIRCLE('',#110,12.65);
#110 = AXIS2_PLACEMENT_3D('',#111,#112,#113);
#111 = CARTESIAN_POINT('',(0.,0.,-15.));
#112 = DIRECTION('',(0.,0.,1.));
#113 = DIRECTION('',(1.,0.,0.));
#114 = PCURVE('',#43,#115);
#115 = DEFINITIONAL_REPRESENTATION('',(#116),#120);
#116 = LINE('',#117,#118);
#117 = CARTESIAN_POINT('',(-0.,0.));
#118 = VECTOR('',#119,1.);
#119 = DIRECTION('',(-1.,0.));
#120 = ( GEOMETRIC_REPRESENTATION_CONTEXT(2) 
PARAMETRIC_REPRESENTATION_CONTEXT() REPRESENTATION_CONTEXT('2D SPACE',''
  ) );
#121 = PCURVE('',#122,#127);
#122 = PLANE('',#123);
#123 = AXIS2_PLACEMENT_3D('',#124,#125,#126);
#124 = CARTESIAN_POINT('',(-1.297176410314E-15,-8.400059686911E-17,-15.)
  );
#125 = DIRECTION('',(0.,0.,1.));
#126 = DIRECTION('',(1.,0.,-0.));
#127 = DEFINITIONAL_REPRESENTATION('',(#128),#132);
#128 = CIRCLE('',#129,12.65);
#129 = AXIS2_PLACEMENT_2D('',#130,#131);
#130 = CARTESIAN_POINT('',(1.297176410314E-15,8.400059686911E-17));
#131 = DIRECTION('',(1.,0.));
#132 = ( GEOMETRIC_REPRESENTATION_CONTEXT(2) 
PARAMETRIC_REPRESENTATION_CONTEXT() REPRESENTATION_CONTEXT('2D SPACE',''
  ) );
#133 = ORIENTED_EDGE('',*,*,#134,.T.);
#134 = EDGE_CURVE('',#106,#22,#135,.T.);
#135 = SEAM_CURVE('',#136,(#140,#147),.PCURVE_S1.);
#136 = LINE('',#137,#138);
#137 = CARTESIAN_POINT('',(12.65,0.,-15.));
#138 = VECTOR('',#139,1.);
#139 = DIRECTION('',(0.,0.,1.));
#140 = PCURVE('',#43,#141);
#141 = DEFINITIONAL_REPRESENTATION('',(#142),#146);
#142 = LINE('',#143,#144);
#143 = CARTESIAN_POINT('',(-6.28318530718,0.));
#144 = VECTOR('',#145,1.);
#145 = DIRECTION('',(-0.,-1.));
#146 = ( GEOMETRIC_REPRESENTATION_CONTEXT(2) 
PARAMETRIC_REPRESENTATION_CONTEXT() REPRESENTATION_CONTEXT('2D SPACE',''
  ) );
#147 = PCURVE('',#43,#148);
#148 = DEFINITIONAL_REPRESENTATION('',(#149),#153);
#149 = LINE('',#150,#151);
#150 = CARTESIAN_POINT('',(-0.,0.));
#151 = VECTOR('',#152,1.);
#152 = DIRECTION('',(-0.,-1.));
#153 = ( GEOMETRIC_REPRESENTATION_CONTEXT(2) 
PARAMETRIC_REPRESENTATION_CONTEXT() REPRESENTATION_CONTEXT('2D SPACE',''
  ) );
#154 = ORIENTED_EDGE('',*,*,#21,.T.);
#155 = ORIENTED_EDGE('',*,*,#134,.F.);
#156 = FACE_BOUND('',#157,.F.);
#157 = EDGE_LOOP('',(#158));
#158 = ORIENTED_EDGE('',*,*,#159,.F.);
#159 = EDGE_CURVE('',#160,#160,#162,.T.);
#160 = VERTEX_POINT('',#161);
#161 = CARTESIAN_POINT('',(1.45,12.566622457924,-7.));
#162 = SURFACE_CURVE('',#163,(#208,#256),.PCURVE_S1.);
#163 = B_SPLINE_CURVE_WITH_KNOTS('',7,(#164,#165,#166,#167,#168,#169,
    #170,#171,#172,#173,#174,#175,#176,#177,#178,#179,#180,#181,#182,
    #183,#184,#185,#186,#187,#188,#189,#190,#191,#192,#193,#194,#195,
    #196,#197,#198,#199,#200,#201,#202,#203,#204,#205,#206,#207),
  .UNSPECIFIED.,.T.,.F.,(8,6,6,6,6,6,6,8),(0.,0.151841402043,
    0.28612900055,0.422745944109,0.587401866966,0.713736503065,
    0.838537333516,1.),.UNSPECIFIED.);
#164 = CARTESIAN_POINT('',(1.45,12.566622457924,-7.));
#165 = CARTESIAN_POINT('',(1.45,12.566622457924,-6.826100384847));
#166 = CARTESIAN_POINT('',(1.425668860678,12.569429787624,
    -6.652209973505));
#167 = CARTESIAN_POINT('',(1.377005789813,12.575045395433,
    -6.480660458053));
#168 = CARTESIAN_POINT('',(1.303419413617,12.583233825678,
    -6.314044935078));
#169 = CARTESIAN_POINT('',(1.204005996838,12.593504515577,
    -6.155624166313));
#170 = CARTESIAN_POINT('',(1.077772853912,12.604943350759,
    -6.009748716754));
#171 = CARTESIAN_POINT('',(0.78850319686,12.626135308905,-5.770444044654
    ));
#172 = CARTESIAN_POINT('',(0.627131445286,12.636242952353,
    -5.669362921168));
#173 = CARTESIAN_POINT('',(0.443444550205,12.645119681293,
    -5.590578569608));
#174 = CARTESIAN_POINT('',(0.244056136443,12.651027619672,-5.54165284706
    ));
#175 = CARTESIAN_POINT('',(3.761129746253E-02,12.652742506174,
    -5.526603182904));
#176 = CARTESIAN_POINT('',(-0.166697491588,12.650388959884,
    -5.545768627667));
#177 = CARTESIAN_POINT('',(-0.557866608918,12.639233777241,
    -5.646203786521));
#178 = CARTESIAN_POINT('',(-0.738027229381,12.630502651932,
    -5.72691725226));
#179 = CARTESIAN_POINT('',(-0.897752176353,12.619876674253,
    -5.831307673426));
#180 = CARTESIAN_POINT('',(-1.035346238492,12.608733257515,
    -5.953859601542));
#181 = CARTESIAN_POINT('',(-1.150071295366,12.598204962398,
    -6.089572419503));
#182 = CARTESIAN_POINT('',(-1.242005598906,12.589077586236,
    -6.233875998063));
#183 = CARTESIAN_POINT('',(-1.396358200705,12.572982048621,
    -6.561891973695));
#184 = CARTESIAN_POINT('',(-1.450441277676,12.566675352492,
    -6.751001940077));
#185 = CARTESIAN_POINT('',(-1.474738122689,12.563667374976,
    -6.945634066006));
#186 = CARTESIAN_POINT('',(-1.469102217307,12.564352891205,
    -7.142054267466));
#187 = CARTESIAN_POINT('',(-1.433196449417,12.568744569849,
    -7.336217376256));
#188 = CARTESIAN_POINT('',(-1.366880401532,12.57630683765,
    -7.523490710862));
#189 = CARTESIAN_POINT('',(-1.196806442759,12.593476962059,
    -7.83285409341));
#190 = CARTESIAN_POINT('',(-1.103992401125,12.602336587158,
    -7.962448108292));
#191 = CARTESIAN_POINT('',(-0.991645970973,12.612186861497,
    -8.083720802131));
#192 = CARTESIAN_POINT('',(-0.859895062544,12.622340128843,
    -8.192819253275));
#193 = CARTESIAN_POINT('',(-0.709554059012,12.631862616294,
    -8.285647278417));
#194 = CARTESIAN_POINT('',(-0.542204713963,12.639680416024,
    -8.357817504624));
#195 = CARTESIAN_POINT('',(-0.181200784258,12.649975361593,
    -8.450507559693));
#196 = CARTESIAN_POINT('',(7.75577793994E-03,12.652391443378,
    -8.470526001026));
#197 = CARTESIAN_POINT('',(0.19945968607,12.651353250594,-8.461210053119
    ));
#198 = CARTESIAN_POINT('',(0.386254713455,12.646688926054,
    -8.422453291567));
#199 = CARTESIAN_POINT('',(0.560847003492,12.639244930361,
    -8.357149215379));
#200 = CARTESIAN_POINT('',(0.717341449052,12.630368760448,
    -8.271119497538));
#201 = CARTESIAN_POINT('',(1.02687823436,12.609466349675,-8.046227859029
    ));
#202 = CARTESIAN_POINT('',(1.170617160663,12.596929136697,-7.89547847312
    ));
#203 = CARTESIAN_POINT('',(1.283676898968,12.585424956673,
    -7.729127446311));
#204 = CARTESIAN_POINT('',(1.367247344074,12.576171984408,
    -7.552685870503));
#205 = CARTESIAN_POINT('',(1.422420708221,12.569804421157,
    -7.370312249743));
#206 = CARTESIAN_POINT('',(1.45,12.566622457924,-7.185139501881));
#207 = CARTESIAN_POINT('',(1.45,12.566622457924,-7.));
#208 = PCURVE('',#43,#209);
#209 = DEFINITIONAL_REPRESENTATION('',(#210),#255);
#210 = B_SPLINE_CURVE_WITH_KNOTS('',7,(#211,#212,#213,#214,#215,#216,
    #217,#218,#219,#220,#221,#222,#223,#224,#225,#226,#227,#228,#229,
    #230,#231,#232,#233,#234,#235,#236,#237,#238,#239,#240,#241,#242,
    #243,#244,#245,#246,#247,#248,#249,#250,#251,#252,#253,#254),
  .UNSPECIFIED.,.T.,.F.,(8,6,6,6,6,6,6,8),(0.,0.151841402043,
    0.28612900055,0.422745944109,0.587401866966,0.713736503065,
    0.838537333516,1.),.UNSPECIFIED.);
#211 = CARTESIAN_POINT('',(-1.455919320794,-8.));
#212 = CARTESIAN_POINT('',(-1.455919320794,-8.173899615153));
#213 = CARTESIAN_POINT('',(-1.457855492413,-8.347790026495));
#214 = CARTESIAN_POINT('',(-1.461727900265,-8.519339541947));
#215 = CARTESIAN_POINT('',(-1.467580868708,-8.685955064922));
#216 = CARTESIAN_POINT('',(-1.475480905281,-8.844375833687));
#217 = CARTESIAN_POINT('',(-1.485499205975,-8.990251283246));
#218 = CARTESIAN_POINT('',(-1.508427655146,-9.229555955346));
#219 = CARTESIAN_POINT('',(-1.52120857435,-9.330637078832));
#220 = CARTESIAN_POINT('',(-1.535743914985,-9.409421430392));
#221 = CARTESIAN_POINT('',(-1.551506959148,-9.45834715294));
#222 = CARTESIAN_POINT('',(-1.567821965224,-9.473396817096));
#223 = CARTESIAN_POINT('',(-1.583971624532,-9.454231372333));
#224 = CARTESIAN_POINT('',(-1.614906655695,-9.353796213479));
#225 = CARTESIAN_POINT('',(-1.629162484969,-9.273082747739));
#226 = CARTESIAN_POINT('',(-1.641814002853,-9.168692326574));
#227 = CARTESIAN_POINT('',(-1.65272541563,-9.046140398458));
#228 = CARTESIAN_POINT('',(-1.661832254886,-8.910427580497));
#229 = CARTESIAN_POINT('',(-1.669135433975,-8.766124001937));
#230 = CARTESIAN_POINT('',(-1.681403381467,-8.438108026305));
#231 = CARTESIAN_POINT('',(-1.685707374371,-8.248998059923));
#232 = CARTESIAN_POINT('',(-1.687642867773,-8.054365933994));
#233 = CARTESIAN_POINT('',(-1.687194026797,-7.857945732534));
#234 = CARTESIAN_POINT('',(-1.684334372007,-7.663782623744));
#235 = CARTESIAN_POINT('',(-1.679058463664,-7.476509289138));
#236 = CARTESIAN_POINT('',(-1.665545540187,-7.16714590659));
#237 = CARTESIAN_POINT('',(-1.658175217684,-7.037551891708));
#238 = CARTESIAN_POINT('',(-1.649260461203,-6.916279197869));
#239 = CARTESIAN_POINT('',(-1.638815636665,-6.807180746725));
#240 = CARTESIAN_POINT('',(-1.626909493942,-6.714352721583));
#241 = CARTESIAN_POINT('',(-1.613668057894,-6.642182495376));
#242 = CARTESIAN_POINT('',(-1.585118595985,-6.549492440307));
#243 = CARTESIAN_POINT('',(-1.570181929315,-6.529473998974));
#244 = CARTESIAN_POINT('',(-1.555031378633,-6.538789946882));
#245 = CARTESIAN_POINT('',(-1.540265089856,-6.577546708433));
#246 = CARTESIAN_POINT('',(-1.526452963508,-6.642850784621));
#247 = CARTESIAN_POINT('',(-1.514062710838,-6.728880502462));
#248 = CARTESIAN_POINT('',(-1.489537672741,-6.953772140971));
#249 = CARTESIAN_POINT('',(-1.47813396048,-7.10452152688));
#250 = CARTESIAN_POINT('',(-1.469151122597,-7.270872553689));
#251 = CARTESIAN_POINT('',(-1.462504435654,-7.447314129497));
#252 = CARTESIAN_POINT('',(-1.458113967416,-7.629687750257));
#253 = CARTESIAN_POINT('',(-1.455919320794,-7.814860498119));
#254 = CARTESIAN_POINT('',(-1.455919320794,-8.));
#255 = ( GEOMETRIC_REPRESENTATION_CONTEXT(2) 
PARAMETRIC_REPRESENTATION_CONTEXT() REPRESENTATION_CONTEXT('2D SPACE',''
  ) );
#256 = PCURVE('',#257,#262);
#257 = CYLINDRICAL_SURFACE('',#258,1.45);
#258 = AXIS2_PLACEMENT_3D('',#259,#260,#261);
#259 = CARTESIAN_POINT('',(0.,13.65,-7.));
#260 = DIRECTION('',(-0.,1.,-0.));
#261 = DIRECTION('',(1.,0.,0.));
#262 = DEFINITIONAL_REPRESENTATION('',(#263),#308);
#263 = B_SPLINE_CURVE_WITH_KNOTS('',7,(#264,#265,#266,#267,#268,#269,
    #270,#271,#272,#273,#274,#275,#276,#277,#278,#279,#280,#281,#282,
    #283,#284,#285,#286,#287,#288,#289,#290,#291,#292,#293,#294,#295,
    #296,#297,#298,#299,#300,#301,#302,#303,#304,#305,#306,#307),
  .UNSPECIFIED.,.F.,.F.,(8,6,6,6,6,6,6,8),(0.,0.151841402043,
    0.28612900055,0.422745944109,0.587401866966,0.713736503065,
    0.838537333516,1.),.UNSPECIFIED.);
#264 = CARTESIAN_POINT('',(0.,-1.083377542076));
#265 = CARTESIAN_POINT('',(-0.119930769071,-1.083377542076));
#266 = CARTESIAN_POINT('',(-0.239854593525,-1.080570212376));
#267 = CARTESIAN_POINT('',(-0.360984859035,-1.074954604567));
#268 = CARTESIAN_POINT('',(-0.484338040491,-1.066766174322));
#269 = CARTESIAN_POINT('',(-0.611040469555,-1.056495484423));
#270 = CARTESIAN_POINT('',(-0.742247092783,-1.045056649241));
#271 = CARTESIAN_POINT('',(-1.001160637849,-1.023864691095));
#272 = CARTESIAN_POINT('',(-1.131348440853,-1.013757047647));
#273 = CARTESIAN_POINT('',(-1.266515024249,-1.004880318707));
#274 = CARTESIAN_POINT('',(-1.404673735559,-0.998972380328));
#275 = CARTESIAN_POINT('',(-1.54429798391,-0.997257493826));
#276 = CARTESIAN_POINT('',(-1.684060116639,-0.999611040116));
#277 = CARTESIAN_POINT('',(-1.962582205275,-1.010766222759));
#278 = CARTESIAN_POINT('',(-2.09677127167,-1.019497348068));
#279 = CARTESIAN_POINT('',(-2.225891648165,-1.030123325747));
#280 = CARTESIAN_POINT('',(-2.350595958639,-1.041266742485));
#281 = CARTESIAN_POINT('',(-2.471354476778,-1.051795037602));
#282 = CARTESIAN_POINT('',(-2.58839764176,-1.060922413764));
#283 = CARTESIAN_POINT('',(-2.838409965787,-1.077017951379));
#284 = CARTESIAN_POINT('',(-2.972299593711,-1.083324647508));
#285 = CARTESIAN_POINT('',(-3.105051969597,-1.086332625024));
#286 = CARTESIAN_POINT('',(-3.237724667811,-1.085647108795));
#287 = CARTESIAN_POINT('',(-3.371270059893,-1.081255430151));
#288 = CARTESIAN_POINT('',(-3.506481099801,-1.07369316235));
#289 = CARTESIAN_POINT('',(-3.749950722695,-1.056523037941));
#290 = CARTESIAN_POINT('',(-3.85910735751,-1.047663412842));
#291 = CARTESIAN_POINT('',(-3.971655565042,-1.037813138503));
#292 = CARTESIAN_POINT('',(-4.087712848434,-1.027659871157));
#293 = CARTESIAN_POINT('',(-4.20758904987,-1.018137383706));
#294 = CARTESIAN_POINT('',(-4.331754758571,-1.010319583976));
#295 = CARTESIAN_POINT('',(-4.588798487364,-1.000024638407));
#296 = CARTESIAN_POINT('',(-4.7184520531,-0.997608556622));
#297 = CARTESIAN_POINT('',(-4.848317370158,-0.998646749406));
#298 = CARTESIAN_POINT('',(-4.977113447475,-1.003311073946));
#299 = CARTESIAN_POINT('',(-5.103481036007,-1.010755069639));
#300 = CARTESIAN_POINT('',(-5.225670358343,-1.019631239552));
#301 = CARTESIAN_POINT('',(-5.489538295017,-1.040533650325));
#302 = CARTESIAN_POINT('',(-5.630846791793,-1.053070863303));
#303 = CARTESIAN_POINT('',(-5.766738254071,-1.064575043327));
#304 = CARTESIAN_POINT('',(-5.898620127877,-1.073828015592));
#305 = CARTESIAN_POINT('',(-6.02779823631,-1.080195578843));
#306 = CARTESIAN_POINT('',(-6.155502892089,-1.083377542076));
#307 = CARTESIAN_POINT('',(-6.28318530718,-1.083377542076));
#308 = ( GEOMETRIC_REPRESENTATION_CONTEXT(2) 
PARAMETRIC_REPRESENTATION_CONTEXT() REPRESENTATION_CONTEXT('2D SPACE',''
  ) );
#309 = FACE_BOUND('',#310,.F.);
#310 = EDGE_LOOP('',(#311));
#311 = ORIENTED_EDGE('',*,*,#312,.T.);
#312 = EDGE_CURVE('',#313,#313,#315,.T.);
#313 = VERTEX_POINT('',#314);
#314 = CARTESIAN_POINT('',(1.45,-12.56662245792,-7.));
#315 = SURFACE_CURVE('',#316,(#361,#409),.PCURVE_S1.);
#316 = B_SPLINE_CURVE_WITH_KNOTS('',7,(#317,#318,#319,#320,#321,#322,
    #323,#324,#325,#326,#327,#328,#329,#330,#331,#332,#333,#334,#335,
    #336,#337,#338,#339,#340,#341,#342,#343,#344,#345,#346,#347,#348,
    #349,#350,#351,#352,#353,#354,#355,#356,#357,#358,#359,#360),
  .UNSPECIFIED.,.T.,.F.,(8,6,6,6,6,6,6,8),(0.,0.151841405897,
    0.286129007813,0.422745954862,0.587401881961,0.713736516685,
    0.838537341199,1.),.UNSPECIFIED.);
#317 = CARTESIAN_POINT('',(1.45,-12.56662245792,-7.));
#318 = CARTESIAN_POINT('',(1.45,-12.56662245792,-6.826100384847));
#319 = CARTESIAN_POINT('',(1.425668860678,-12.56942978762,
    -6.652209973505));
#320 = CARTESIAN_POINT('',(1.377005789813,-12.57504539543,
    -6.480660458053));
#321 = CARTESIAN_POINT('',(1.303419413617,-12.58323382567,
    -6.314044935078));
#322 = CARTESIAN_POINT('',(1.204005996838,-12.59350451557,
    -6.155624166313));
#323 = CARTESIAN_POINT('',(1.077772853912,-12.60494335075,
    -6.009748716754));
#324 = CARTESIAN_POINT('',(0.78850319686,-12.6261353089,-5.770444044654)
  );
#325 = CARTESIAN_POINT('',(0.627131445286,-12.63624295235,
    -5.669362921168));
#326 = CARTESIAN_POINT('',(0.443444550205,-12.64511968129,
    -5.590578569608));
#327 = CARTESIAN_POINT('',(0.244056136442,-12.65102761967,-5.54165284706
    ));
#328 = CARTESIAN_POINT('',(3.76112974627E-02,-12.65274250617,
    -5.526603182904));
#329 = CARTESIAN_POINT('',(-0.166697491588,-12.65038895988,
    -5.545768627667));
#330 = CARTESIAN_POINT('',(-0.557866608949,-12.63923377724,
    -5.646203786529));
#331 = CARTESIAN_POINT('',(-0.738027229384,-12.63050265193,
    -5.726917252272));
#332 = CARTESIAN_POINT('',(-0.897752176329,-12.61987667425,
    -5.831307673416));
#333 = CARTESIAN_POINT('',(-1.035346238475,-12.60873325751,
    -5.953859601518));
#334 = CARTESIAN_POINT('',(-1.150071295373,-12.59820496239,
    -6.089572419498));
#335 = CARTESIAN_POINT('',(-1.242005598921,-12.58907758623,
    -6.233875998094));
#336 = CARTESIAN_POINT('',(-1.396358200706,-12.57298204862,
    -6.561891973697));
#337 = CARTESIAN_POINT('',(-1.450441277676,-12.56667535249,
    -6.75100194008));
#338 = CARTESIAN_POINT('',(-1.474738122689,-12.56366737497,
    -6.945634066006));
#339 = CARTESIAN_POINT('',(-1.469102217307,-12.5643528912,
    -7.142054267465));
#340 = CARTESIAN_POINT('',(-1.433196449417,-12.56874456984,
    -7.336217376254));
#341 = CARTESIAN_POINT('',(-1.366880401533,-12.57630683764,
    -7.52349071086));
#342 = CARTESIAN_POINT('',(-1.196806445464,-12.59347696178,
    -7.83285408849));
#343 = CARTESIAN_POINT('',(-1.103992395911,-12.60233658788,
    -7.96244812122));
#344 = CARTESIAN_POINT('',(-0.991645969223,-12.61218686088,
    -8.083720789247));
#345 = CARTESIAN_POINT('',(-0.859895077249,-12.62234012875,
    -8.192819256653));
#346 = CARTESIAN_POINT('',(-0.709554042555,-12.63186261671,
    -8.285647281203));
#347 = CARTESIAN_POINT('',(-0.542204720627,-12.63968041583,
    -8.357817502913));
#348 = CARTESIAN_POINT('',(-0.181200784258,-12.64997536159,
    -8.450507559693));
#349 = CARTESIAN_POINT('',(7.755777939918E-03,-12.65239144337,
    -8.470526001026));
#350 = CARTESIAN_POINT('',(0.19945968607,-12.65135325059,-8.461210053119
    ));
#351 = CARTESIAN_POINT('',(0.386254713456,-12.64668892605,
    -8.422453291567));
#352 = CARTESIAN_POINT('',(0.560847003492,-12.63924493036,-8.35714921538
    ));
#353 = CARTESIAN_POINT('',(0.717341449052,-12.63036876044,
    -8.271119497538));
#354 = CARTESIAN_POINT('',(1.02687823436,-12.60946634967,-8.046227859029
    ));
#355 = CARTESIAN_POINT('',(1.170617160663,-12.59692913669,-7.89547847312
    ));
#356 = CARTESIAN_POINT('',(1.283676898969,-12.58542495667,
    -7.729127446311));
#357 = CARTESIAN_POINT('',(1.367247344073,-12.5761719844,-7.552685870503
    ));
#358 = CARTESIAN_POINT('',(1.422420708221,-12.56980442115,
    -7.370312249742));
#359 = CARTESIAN_POINT('',(1.45,-12.56662245792,-7.185139501881));
#360 = CARTESIAN_POINT('',(1.45,-12.56662245792,-7.));
#361 = PCURVE('',#43,#362);
#362 = DEFINITIONAL_REPRESENTATION('',(#363),#408);
#363 = B_SPLINE_CURVE_WITH_KNOTS('',7,(#364,#365,#366,#367,#368,#369,
    #370,#371,#372,#373,#374,#375,#376,#377,#378,#379,#380,#381,#382,
    #383,#384,#385,#386,#387,#388,#389,#390,#391,#392,#393,#394,#395,
    #396,#397,#398,#399,#400,#401,#402,#403,#404,#405,#406,#407),
  .UNSPECIFIED.,.T.,.F.,(8,6,6,6,6,6,6,8),(0.,0.151841405897,
    0.286129007813,0.422745954862,0.587401881961,0.713736516685,
    0.838537341199,1.),.UNSPECIFIED.);
#364 = CARTESIAN_POINT('',(-4.827265986386,-8.));
#365 = CARTESIAN_POINT('',(-4.827265986386,-8.173899615153));
#366 = CARTESIAN_POINT('',(-4.825329814766,-8.347790026495));
#367 = CARTESIAN_POINT('',(-4.821457406914,-8.519339541947));
#368 = CARTESIAN_POINT('',(-4.815604438471,-8.685955064922));
#369 = CARTESIAN_POINT('',(-4.807704401898,-8.844375833687));
#370 = CARTESIAN_POINT('',(-4.797686101204,-8.990251283246));
#371 = CARTESIAN_POINT('',(-4.774757652034,-9.229555955346));
#372 = CARTESIAN_POINT('',(-4.76197673283,-9.330637078832));
#373 = CARTESIAN_POINT('',(-4.747441392195,-9.409421430392));
#374 = CARTESIAN_POINT('',(-4.731678348032,-9.45834715294));
#375 = CARTESIAN_POINT('',(-4.715363341956,-9.473396817096));
#376 = CARTESIAN_POINT('',(-4.699213682647,-9.454231372333));
#377 = CARTESIAN_POINT('',(-4.668278651482,-9.353796213471));
#378 = CARTESIAN_POINT('',(-4.654022822211,-9.273082747728));
#379 = CARTESIAN_POINT('',(-4.641371304328,-9.168692326584));
#380 = CARTESIAN_POINT('',(-4.630459891551,-9.046140398482));
#381 = CARTESIAN_POINT('',(-4.621353052293,-8.910427580502));
#382 = CARTESIAN_POINT('',(-4.614049873203,-8.766124001906));
#383 = CARTESIAN_POINT('',(-4.601781925713,-8.438108026303));
#384 = CARTESIAN_POINT('',(-4.597477932809,-8.24899805992));
#385 = CARTESIAN_POINT('',(-4.595542439407,-8.054365933993));
#386 = CARTESIAN_POINT('',(-4.595991280383,-7.857945732535));
#387 = CARTESIAN_POINT('',(-4.598850935173,-7.663782623746));
#388 = CARTESIAN_POINT('',(-4.604126843515,-7.47650928914));
#389 = CARTESIAN_POINT('',(-4.617639766778,-7.16714591151));
#390 = CARTESIAN_POINT('',(-4.625010089911,-7.03755187878));
#391 = CARTESIAN_POINT('',(-4.633924846112,-6.916279210753));
#392 = CARTESIAN_POINT('',(-4.644369669353,-6.807180743347));
#393 = CARTESIAN_POINT('',(-4.656275814539,-6.714352718797));
#394 = CARTESIAN_POINT('',(-4.669517248758,-6.642182497087));
#395 = CARTESIAN_POINT('',(-4.698066711195,-6.549492440307));
#396 = CARTESIAN_POINT('',(-4.713003377864,-6.529473998974));
#397 = CARTESIAN_POINT('',(-4.728153928547,-6.538789946881));
#398 = CARTESIAN_POINT('',(-4.742920217324,-6.577546708433));
#399 = CARTESIAN_POINT('',(-4.756732343672,-6.642850784621));
#400 = CARTESIAN_POINT('',(-4.769122596341,-6.728880502462));
#401 = CARTESIAN_POINT('',(-4.793647634439,-6.953772140971));
#402 = CARTESIAN_POINT('',(-4.8050513467,-7.10452152688));
#403 = CARTESIAN_POINT('',(-4.814034184582,-7.270872553689));
#404 = CARTESIAN_POINT('',(-4.820680871526,-7.447314129497));
#405 = CARTESIAN_POINT('',(-4.825071339764,-7.629687750258));
#406 = CARTESIAN_POINT('',(-4.827265986386,-7.814860498119));
#407 = CARTESIAN_POINT('',(-4.827265986386,-8.));
#408 = ( GEOMETRIC_REPRESENTATION_CONTEXT(2) 
PARAMETRIC_REPRESENTATION_CONTEXT() REPRESENTATION_CONTEXT('2D SPACE',''
  ) );
#409 = PCURVE('',#410,#415);
#410 = CYLINDRICAL_SURFACE('',#411,1.45);
#411 = AXIS2_PLACEMENT_3D('',#412,#413,#414);
#412 = CARTESIAN_POINT('',(0.,13.65,-7.));
#413 = DIRECTION('',(-0.,1.,-0.));
#414 = DIRECTION('',(1.,0.,0.));
#415 = DEFINITIONAL_REPRESENTATION('',(#416),#461);
#416 = B_SPLINE_CURVE_WITH_KNOTS('',7,(#417,#418,#419,#420,#421,#422,
    #423,#424,#425,#426,#427,#428,#429,#430,#431,#432,#433,#434,#435,
    #436,#437,#438,#439,#440,#441,#442,#443,#444,#445,#446,#447,#448,
    #449,#450,#451,#452,#453,#454,#455,#456,#457,#458,#459,#460),
  .UNSPECIFIED.,.F.,.F.,(8,6,6,6,6,6,6,8),(0.,0.151841405897,
    0.286129007813,0.422745954862,0.587401881961,0.713736516685,
    0.838537341199,1.),.UNSPECIFIED.);
#417 = CARTESIAN_POINT('',(0.,-26.21662245792));
#418 = CARTESIAN_POINT('',(-0.119930769071,-26.21662245792));
#419 = CARTESIAN_POINT('',(-0.239854593525,-26.21942978762));
#420 = CARTESIAN_POINT('',(-0.360984859035,-26.22504539543));
#421 = CARTESIAN_POINT('',(-0.484338040491,-26.23323382567));
#422 = CARTESIAN_POINT('',(-0.611040469555,-26.24350451557));
#423 = CARTESIAN_POINT('',(-0.742247092783,-26.25494335075));
#424 = CARTESIAN_POINT('',(-1.001160637849,-26.2761353089));
#425 = CARTESIAN_POINT('',(-1.131348440853,-26.28624295235));
#426 = CARTESIAN_POINT('',(-1.266515024248,-26.29511968129));
#427 = CARTESIAN_POINT('',(-1.404673735559,-26.30102761967));
#428 = CARTESIAN_POINT('',(-1.54429798391,-26.30274250617));
#429 = CARTESIAN_POINT('',(-1.684060116639,-26.30038895988));
#430 = CARTESIAN_POINT('',(-1.962582205297,-26.28923377724));
#431 = CARTESIAN_POINT('',(-2.096771271674,-26.28050265193));
#432 = CARTESIAN_POINT('',(-2.22589164815,-26.26987667425));
#433 = CARTESIAN_POINT('',(-2.35059595862,-26.25873325751));
#434 = CARTESIAN_POINT('',(-2.471354476778,-26.24820496239));
#435 = CARTESIAN_POINT('',(-2.588397641784,-26.23907758623));
#436 = CARTESIAN_POINT('',(-2.838409965788,-26.22298204862));
#437 = CARTESIAN_POINT('',(-2.972299593713,-26.21667535249));
#438 = CARTESIAN_POINT('',(-3.105051969597,-26.21366737497));
#439 = CARTESIAN_POINT('',(-3.237724667811,-26.2143528912));
#440 = CARTESIAN_POINT('',(-3.371270059891,-26.21874456984));
#441 = CARTESIAN_POINT('',(-3.5064810998,-26.22630683764));
#442 = CARTESIAN_POINT('',(-3.749950718822,-26.24347696178));
#443 = CARTESIAN_POINT('',(-3.859107366401,-26.25233658788));
#444 = CARTESIAN_POINT('',(-3.97165556036,-26.26218686088));
#445 = CARTESIAN_POINT('',(-4.087712841269,-26.27234012875));
#446 = CARTESIAN_POINT('',(-4.20758906083,-26.28186261671));
#447 = CARTESIAN_POINT('',(-4.331754753826,-26.28968041583));
#448 = CARTESIAN_POINT('',(-4.588798487364,-26.29997536159));
#449 = CARTESIAN_POINT('',(-4.7184520531,-26.30239144337));
#450 = CARTESIAN_POINT('',(-4.848317370157,-26.30135325059));
#451 = CARTESIAN_POINT('',(-4.977113447476,-26.29668892605));
#452 = CARTESIAN_POINT('',(-5.103481036007,-26.28924493036));
#453 = CARTESIAN_POINT('',(-5.225670358343,-26.28036876044));
#454 = CARTESIAN_POINT('',(-5.489538295017,-26.25946634967));
#455 = CARTESIAN_POINT('',(-5.630846791792,-26.24692913669));
#456 = CARTESIAN_POINT('',(-5.766738254071,-26.23542495667));
#457 = CARTESIAN_POINT('',(-5.898620127877,-26.2261719844));
#458 = CARTESIAN_POINT('',(-6.02779823631,-26.21980442115));
#459 = CARTESIAN_POINT('',(-6.155502892089,-26.21662245792));
#460 = CARTESIAN_POINT('',(-6.28318530718,-26.21662245792));
#461 = ( GEOMETRIC_REPRESENTATION_CONTEXT(2) 
PARAMETRIC_REPRESENTATION_CONTEXT() REPRESENTATION_CONTEXT('2D SPACE',''
  ) );
#462 = ADVANCED_FACE('',(#463),#89,.T.);
#463 = FACE_BOUND('',#464,.T.);
#464 = EDGE_LOOP('',(#465));
#465 = ORIENTED_EDGE('',*,*,#74,.T.);
#466 = ADVANCED_FACE('',(#467,#470),#122,.F.);
#467 = FACE_BOUND('',#468,.F.);
#468 = EDGE_LOOP('',(#469));
#469 = ORIENTED_EDGE('',*,*,#105,.T.);
#470 = FACE_BOUND('',#471,.F.);
#471 = EDGE_LOOP('',(#472));
#472 = ORIENTED_EDGE('',*,*,#473,.T.);
#473 = EDGE_CURVE('',#474,#474,#476,.T.);
#474 = VERTEX_POINT('',#475);
#475 = CARTESIAN_POINT('',(10.825,0.,-15.));
#476 = SURFACE_CURVE('',#477,(#482,#493),.PCURVE_S1.);
#477 = CIRCLE('',#478,10.825);
#478 = AXIS2_PLACEMENT_3D('',#479,#480,#481);
#479 = CARTESIAN_POINT('',(0.,0.,-15.));
#480 = DIRECTION('',(0.,0.,-1.));
#481 = DIRECTION('',(1.,0.,0.));
#482 = PCURVE('',#122,#483);
#483 = DEFINITIONAL_REPRESENTATION('',(#484),#492);
#484 = ( BOUNDED_CURVE() B_SPLINE_CURVE(2,(#485,#486,#487,#488,#489,#490
,#491),.UNSPECIFIED.,.T.,.F.) B_SPLINE_CURVE_WITH_KNOTS((1,2,2,2,2,1),(
    -2.094395102393,0.,2.094395102393,4.188790204786,6.28318530718,
8.377580409573),.UNSPECIFIED.) CURVE() GEOMETRIC_REPRESENTATION_ITEM() 
RATIONAL_B_SPLINE_CURVE((1.,0.5,1.,0.5,1.,0.5,1.)) REPRESENTATION_ITEM(
  '') );
#485 = CARTESIAN_POINT('',(10.825,8.400059686911E-17));
#486 = CARTESIAN_POINT('',(10.825,-18.74944999193));
#487 = CARTESIAN_POINT('',(-5.4125,-9.374724995967));
#488 = CARTESIAN_POINT('',(-21.65,-2.567359723285E-15));
#489 = CARTESIAN_POINT('',(-5.4125,9.374724995967));
#490 = CARTESIAN_POINT('',(10.825,18.749449991933));
#491 = CARTESIAN_POINT('',(10.825,8.400059686911E-17));
#492 = ( GEOMETRIC_REPRESENTATION_CONTEXT(2) 
PARAMETRIC_REPRESENTATION_CONTEXT() REPRESENTATION_CONTEXT('2D SPACE',''
  ) );
#493 = PCURVE('',#494,#499);
#494 = CYLINDRICAL_SURFACE('',#495,10.825);
#495 = AXIS2_PLACEMENT_3D('',#496,#497,#498);
#496 = CARTESIAN_POINT('',(0.,0.,-16.));
#497 = DIRECTION('',(-0.,-0.,-1.));
#498 = DIRECTION('',(1.,0.,0.));
#499 = DEFINITIONAL_REPRESENTATION('',(#500),#504);
#500 = LINE('',#501,#502);
#501 = CARTESIAN_POINT('',(-6.28318530718,-1.));
#502 = VECTOR('',#503,1.);
#503 = DIRECTION('',(1.,-0.));
#504 = ( GEOMETRIC_REPRESENTATION_CONTEXT(2) 
PARAMETRIC_REPRESENTATION_CONTEXT() REPRESENTATION_CONTEXT('2D SPACE',''
  ) );
#505 = ADVANCED_FACE('',(#506),#257,.F.);
#506 = FACE_BOUND('',#507,.T.);
#507 = EDGE_LOOP('',(#508,#509,#532,#676));
#508 = ORIENTED_EDGE('',*,*,#159,.F.);
#509 = ORIENTED_EDGE('',*,*,#510,.T.);
#510 = EDGE_CURVE('',#160,#511,#513,.T.);
#511 = VERTEX_POINT('',#512);
#512 = CARTESIAN_POINT('',(1.45,10.727447273233,-7.));
#513 = SEAM_CURVE('',#514,(#518,#525),.PCURVE_S1.);
#514 = LINE('',#515,#516);
#515 = CARTESIAN_POINT('',(1.45,13.65,-7.));
#516 = VECTOR('',#517,1.);
#517 = DIRECTION('',(0.,-1.,0.));
#518 = PCURVE('',#257,#519);
#519 = DEFINITIONAL_REPRESENTATION('',(#520),#524);
#520 = LINE('',#521,#522);
#521 = CARTESIAN_POINT('',(-6.28318530718,0.));
#522 = VECTOR('',#523,1.);
#523 = DIRECTION('',(-0.,-1.));
#524 = ( GEOMETRIC_REPRESENTATION_CONTEXT(2) 
PARAMETRIC_REPRESENTATION_CONTEXT() REPRESENTATION_CONTEXT('2D SPACE',''
  ) );
#525 = PCURVE('',#257,#526);
#526 = DEFINITIONAL_REPRESENTATION('',(#527),#531);
#527 = LINE('',#528,#529);
#528 = CARTESIAN_POINT('',(-0.,0.));
#529 = VECTOR('',#530,1.);
#530 = DIRECTION('',(-0.,-1.));
#531 = ( GEOMETRIC_REPRESENTATION_CONTEXT(2) 
PARAMETRIC_REPRESENTATION_CONTEXT() REPRESENTATION_CONTEXT('2D SPACE',''
  ) );
#532 = ORIENTED_EDGE('',*,*,#533,.T.);
#533 = EDGE_CURVE('',#511,#511,#534,.T.);
#534 = SURFACE_CURVE('',#535,(#580,#628),.PCURVE_S1.);
#535 = B_SPLINE_CURVE_WITH_KNOTS('',7,(#536,#537,#538,#539,#540,#541,
    #542,#543,#544,#545,#546,#547,#548,#549,#550,#551,#552,#553,#554,
    #555,#556,#557,#558,#559,#560,#561,#562,#563,#564,#565,#566,#567,
    #568,#569,#570,#571,#572,#573,#574,#575,#576,#577,#578,#579),
  .UNSPECIFIED.,.T.,.F.,(8,6,6,6,6,6,6,8),(0.,0.15181995641,
    0.286133339353,0.422747190168,0.587428874745,0.713761103187,
    0.838574735696,1.),.UNSPECIFIED.);
#536 = CARTESIAN_POINT('',(1.45,10.727447273233,-7.));
#537 = CARTESIAN_POINT('',(1.45,10.727447273233,-6.826021879376));
#538 = CARTESIAN_POINT('',(1.425646870454,10.730738886315,-6.65205916218
    ));
#539 = CARTESIAN_POINT('',(1.37694306155,10.737322739884,-6.480465673708
    ));
#540 = CARTESIAN_POINT('',(1.303314754026,10.746918431895,-6.31384920955
    ));
#541 = CARTESIAN_POINT('',(1.203883172585,10.758943086601,
    -6.155471867329));
#542 = CARTESIAN_POINT('',(1.077678905006,10.772322957947,-6.00967099546
    ));
#543 = CARTESIAN_POINT('',(0.788541063971,10.797100731058,
    -5.770475371053));
#544 = CARTESIAN_POINT('',(0.627181278547,10.808920206522,
    -5.669385997194));
#545 = CARTESIAN_POINT('',(0.443494148287,10.81929679025,-5.590593301615
    ));
#546 = CARTESIAN_POINT('',(0.244107158152,10.82619890649,-5.541661823238
    ));
#547 = CARTESIAN_POINT('',(3.765945518365E-02,10.828204931401,
    -5.526601437175));
#548 = CARTESIAN_POINT('',(-0.166666526699,10.825456081527,
    -5.545760677235));
#549 = CARTESIAN_POINT('',(-0.55785576965,10.812417623796,-5.64620100347
    ));
#550 = CARTESIAN_POINT('',(-0.737987664,10.802213150417,-5.726903301079)
  );
#551 = CARTESIAN_POINT('',(-0.897684220513,10.789792124718,
    -5.831267381694));
#552 = CARTESIAN_POINT('',(-1.035265928526,10.776759236039,
    -5.953787031474));
#553 = CARTESIAN_POINT('',(-1.150002193714,10.764437582831,
    -6.089479262036));
#554 = CARTESIAN_POINT('',(-1.241968812948,10.753748920367,
    -6.233797823923));
#555 = CARTESIAN_POINT('',(-1.396417653172,10.734890565572,
    -6.562018316619));
#556 = CARTESIAN_POINT('',(-1.450462304072,10.727506399544,
    -6.751151062944));
#557 = CARTESIAN_POINT('',(-1.474715063126,10.723988330974,
    -6.945713196675));
#558 = CARTESIAN_POINT('',(-1.46907628899,10.724792054593,
    -7.142023266266));
#559 = CARTESIAN_POINT('',(-1.433213968187,10.729931182651,
    -7.336104105047));
#560 = CARTESIAN_POINT('',(-1.366939231486,10.738785048695,
    -7.523383699574));
#561 = CARTESIAN_POINT('',(-1.196774270289,10.758898150837,
    -7.832912614914));
#562 = CARTESIAN_POINT('',(-1.103936520473,10.769270813568,
    -7.96251556005));
#563 = CARTESIAN_POINT('',(-0.991585193229,10.780796851376,
    -8.083770570812));
#564 = CARTESIAN_POINT('',(-0.859848109264,10.792670577654,
    -8.192844027509));
#565 = CARTESIAN_POINT('',(-0.70953162978,10.803801844295,
    -8.285653488844));
#566 = CARTESIAN_POINT('',(-0.542203326646,10.812939324534,
    -8.357817860826));
#567 = CARTESIAN_POINT('',(-0.181180332738,10.82497233191,
    -8.450512810751));
#568 = CARTESIAN_POINT('',(7.792433621074E-03,10.827794905979,
    -8.470528913236));
#569 = CARTESIAN_POINT('',(0.199504584528,10.826580152378,
    -8.461205260263));
#570 = CARTESIAN_POINT('',(0.386304057894,10.821130333446,
    -8.422441614948));
#571 = CARTESIAN_POINT('',(0.560898311849,10.812429084014,
    -8.357128103872));
#572 = CARTESIAN_POINT('',(0.717380810333,10.802050889259,
    -8.271090899893));
#573 = CARTESIAN_POINT('',(1.026768980832,10.777615865848,
    -8.046307236363));
#574 = CARTESIAN_POINT('',(1.170472036447,10.762954228143,
    -7.895641847746));
#575 = CARTESIAN_POINT('',(1.283551166862,10.749487362979,
    -7.729343708228));
#576 = CARTESIAN_POINT('',(1.36717034936,10.738644380781,-7.552906617879
    ));
#577 = CARTESIAN_POINT('',(1.422393033819,10.73117852361,-7.370486738161
    ));
#578 = CARTESIAN_POINT('',(1.45,10.727447273233,-7.185232360342));
#579 = CARTESIAN_POINT('',(1.45,10.727447273233,-7.));
#580 = PCURVE('',#257,#581);
#581 = DEFINITIONAL_REPRESENTATION('',(#582),#627);
#582 = B_SPLINE_CURVE_WITH_KNOTS('',7,(#583,#584,#585,#586,#587,#588,
    #589,#590,#591,#592,#593,#594,#595,#596,#597,#598,#599,#600,#601,
    #602,#603,#604,#605,#606,#607,#608,#609,#610,#611,#612,#613,#614,
    #615,#616,#617,#618,#619,#620,#621,#622,#623,#624,#625,#626),
  .UNSPECIFIED.,.F.,.F.,(8,6,6,6,6,6,6,8),(0.,0.15181995641,
    0.286133339353,0.422747190168,0.587428874745,0.713761103187,
    0.838574735696,1.),.UNSPECIFIED.);
#583 = CARTESIAN_POINT('',(0.,-2.922552726767));
#584 = CARTESIAN_POINT('',(-0.119984910775,-2.922552726767));
#585 = CARTESIAN_POINT('',(-0.239958610751,-2.919261113685));
#586 = CARTESIAN_POINT('',(-0.361122976899,-2.912677260116));
#587 = CARTESIAN_POINT('',(-0.484487438493,-2.903081568105));
#588 = CARTESIAN_POINT('',(-0.61117269321,-2.891056913399));
#589 = CARTESIAN_POINT('',(-0.74233118264,-2.877677042053));
#590 = CARTESIAN_POINT('',(-1.001126744533,-2.852899268942));
#591 = CARTESIAN_POINT('',(-1.131311841072,-2.841079793478));
#592 = CARTESIAN_POINT('',(-1.266479613816,-2.83070320975));
#593 = CARTESIAN_POINT('',(-1.404638993018,-2.82380109351));
#594 = CARTESIAN_POINT('',(-1.544265549468,-2.821795068599));
#595 = CARTESIAN_POINT('',(-1.684038068872,-2.824543918473));
#596 = CARTESIAN_POINT('',(-1.962574487448,-2.837582376204));
#597 = CARTESIAN_POINT('',(-2.096742456624,-2.847786849583));
#598 = CARTESIAN_POINT('',(-2.225838562957,-2.860207875282));
#599 = CARTESIAN_POINT('',(-2.35052331174,-2.873240763961));
#600 = CARTESIAN_POINT('',(-2.471276059868,-2.885562417169));
#601 = CARTESIAN_POINT('',(-2.588338057777,-2.896251079633));
#602 = CARTESIAN_POINT('',(-2.838506263804,-2.915109434428));
#603 = CARTESIAN_POINT('',(-2.972398836353,-2.922493600456));
#604 = CARTESIAN_POINT('',(-3.105103303526,-2.926011669026));
#605 = CARTESIAN_POINT('',(-3.237706644314,-2.925207945407));
#606 = CARTESIAN_POINT('',(-3.371195805413,-2.920068817349));
#607 = CARTESIAN_POINT('',(-3.506396881696,-2.911214951305));
#608 = CARTESIAN_POINT('',(-3.74999677924,-2.891101849163));
#609 = CARTESIAN_POINT('',(-3.859166682663,-2.880729186432));
#610 = CARTESIAN_POINT('',(-3.971708379987,-2.869203148624));
#611 = CARTESIAN_POINT('',(-4.087748569081,-2.857329422346));
#612 = CARTESIAN_POINT('',(-4.207605092191,-2.846198155705));
#613 = CARTESIAN_POINT('',(-4.331755746375,-2.837060675467));
#614 = CARTESIAN_POINT('',(-4.588813049352,-2.82502766809));
#615 = CARTESIAN_POINT('',(-4.718477018894,-2.822205094021));
#616 = CARTESIAN_POINT('',(-4.848347786025,-2.823419847622));
#617 = CARTESIAN_POINT('',(-4.977147977871,-2.828869666554));
#618 = CARTESIAN_POINT('',(-5.103518202093,-2.837570915986));
#619 = CARTESIAN_POINT('',(-5.225703912287,-2.847949110741));
#620 = CARTESIAN_POINT('',(-5.489445160681,-2.872384134152));
#621 = CARTESIAN_POINT('',(-5.63069958014,-2.887045771857));
#622 = CARTESIAN_POINT('',(-5.766570404876,-2.900512637021));
#623 = CARTESIAN_POINT('',(-5.898462813863,-2.911355619219));
#624 = CARTESIAN_POINT('',(-6.027677887951,-2.91882147639));
#625 = CARTESIAN_POINT('',(-6.155438851771,-2.922552726767));
#626 = CARTESIAN_POINT('',(-6.28318530718,-2.922552726767));
#627 = ( GEOMETRIC_REPRESENTATION_CONTEXT(2) 
PARAMETRIC_REPRESENTATION_CONTEXT() REPRESENTATION_CONTEXT('2D SPACE',''
  ) );
#628 = PCURVE('',#494,#629);
#629 = DEFINITIONAL_REPRESENTATION('',(#630),#675);
#630 = B_SPLINE_CURVE_WITH_KNOTS('',7,(#631,#632,#633,#634,#635,#636,
    #637,#638,#639,#640,#641,#642,#643,#644,#645,#646,#647,#648,#649,
    #650,#651,#652,#653,#654,#655,#656,#657,#658,#659,#660,#661,#662,
    #663,#664,#665,#666,#667,#668,#669,#670,#671,#672,#673,#674),
  .UNSPECIFIED.,.T.,.F.,(8,6,6,6,6,6,6,8),(0.,0.15181995641,
    0.286133339353,0.422747190168,0.587428874745,0.713761103187,
    0.838574735696,1.),.UNSPECIFIED.);
#631 = CARTESIAN_POINT('',(-1.43644330463,-9.));
#632 = CARTESIAN_POINT('',(-1.43644330463,-9.173978120624));
#633 = CARTESIAN_POINT('',(-1.438713474574,-9.34794083782));
#634 = CARTESIAN_POINT('',(-1.443253587862,-9.519534326291));
#635 = CARTESIAN_POINT('',(-1.450112734003,-9.68615079045));
#636 = CARTESIAN_POINT('',(-1.459364116427,-9.844528132671));
#637 = CARTESIAN_POINT('',(-1.471085666815,-9.99032900454));
#638 = CARTESIAN_POINT('',(-1.497893756347,-10.22952462894));
#639 = CARTESIAN_POINT('',(-1.512838725078,-10.3306140028));
#640 = CARTESIAN_POINT('',(-1.529830869345,-10.40940669838));
#641 = CARTESIAN_POINT('',(-1.548251765839,-10.45833817676));
#642 = CARTESIAN_POINT('',(-1.567315584055,-10.47339856282));
#643 = CARTESIAN_POINT('',(-1.586188988237,-10.45423932276));
#644 = CARTESIAN_POINT('',(-1.622346629857,-10.35379899653));
#645 = CARTESIAN_POINT('',(-1.639009149759,-10.27309669892));
#646 = CARTESIAN_POINT('',(-1.653801691486,-10.1687326183));
#647 = CARTESIAN_POINT('',(-1.666566284697,-10.04621296852));
#648 = CARTESIAN_POINT('',(-1.677225709675,-9.910520737964));
#649 = CARTESIAN_POINT('',(-1.685778522622,-9.766202176077));
#650 = CARTESIAN_POINT('',(-1.700152277134,-9.437981683381));
#651 = CARTESIAN_POINT('',(-1.705190725695,-9.248848937056));
#652 = CARTESIAN_POINT('',(-1.707454826057,-9.054286803324));
#653 = CARTESIAN_POINT('',(-1.706928608443,-8.857976733735));
#654 = CARTESIAN_POINT('',(-1.703581683946,-8.663895894953));
#655 = CARTESIAN_POINT('',(-1.697405625261,-8.476616300426));
#656 = CARTESIAN_POINT('',(-1.681576572212,-8.167087385086));
#657 = CARTESIAN_POINT('',(-1.672947144748,-8.03748443995));
#658 = CARTESIAN_POINT('',(-1.662514526084,-7.916229429188));
#659 = CARTESIAN_POINT('',(-1.65029732919,-7.807155972491));
#660 = CARTESIAN_POINT('',(-1.636376990522,-7.714346511156));
#661 = CARTESIAN_POINT('',(-1.620899873754,-7.642182139174));
#662 = CARTESIAN_POINT('',(-1.587530500067,-7.549487189249));
#663 = CARTESIAN_POINT('',(-1.570074411375,-7.529471086764));
#664 = CARTESIAN_POINT('',(-1.552370515833,-7.538794739737));
#665 = CARTESIAN_POINT('',(-1.535114399469,-7.577558385052));
#666 = CARTESIAN_POINT('',(-1.518969063115,-7.642871896128));
#667 = CARTESIAN_POINT('',(-1.504482818552,-7.728909100107));
#668 = CARTESIAN_POINT('',(-1.475812925563,-7.953692763637));
#669 = CARTESIAN_POINT('',(-1.462472393571,-8.104358152254));
#670 = CARTESIAN_POINT('',(-1.451953825257,-8.270656291772));
#671 = CARTESIAN_POINT('',(-1.444164586006,-8.447093382121));
#672 = CARTESIAN_POINT('',(-1.439016794107,-8.629513261839));
#673 = CARTESIAN_POINT('',(-1.43644330463,-8.814767639658));
#674 = CARTESIAN_POINT('',(-1.43644330463,-9.));
#675 = ( GEOMETRIC_REPRESENTATION_CONTEXT(2) 
PARAMETRIC_REPRESENTATION_CONTEXT() REPRESENTATION_CONTEXT('2D SPACE',''
  ) );
#676 = ORIENTED_EDGE('',*,*,#510,.F.);
#677 = ADVANCED_FACE('',(#678),#410,.F.);
#678 = FACE_BOUND('',#679,.T.);
#679 = EDGE_LOOP('',(#680,#826,#847,#848));
#680 = ORIENTED_EDGE('',*,*,#681,.F.);
#681 = EDGE_CURVE('',#682,#682,#684,.T.);
#682 = VERTEX_POINT('',#683);
#683 = CARTESIAN_POINT('',(1.45,-10.72744727323,-7.));
#684 = SURFACE_CURVE('',#685,(#730,#778),.PCURVE_S1.);
#685 = B_SPLINE_CURVE_WITH_KNOTS('',7,(#686,#687,#688,#689,#690,#691,
    #692,#693,#694,#695,#696,#697,#698,#699,#700,#701,#702,#703,#704,
    #705,#706,#707,#708,#709,#710,#711,#712,#713,#714,#715,#716,#717,
    #718,#719,#720,#721,#722,#723,#724,#725,#726,#727,#728,#729),
  .UNSPECIFIED.,.T.,.F.,(8,6,6,6,6,6,6,8),(0.,0.15181995642,
    0.286133339373,0.422747190192,0.58742887476,0.713761103197,
    0.838574735702,1.),.UNSPECIFIED.);
#686 = CARTESIAN_POINT('',(1.45,-10.72744727323,-7.));
#687 = CARTESIAN_POINT('',(1.45,-10.72744727323,-6.826021879376));
#688 = CARTESIAN_POINT('',(1.425646870454,-10.73073888631,-6.65205916218
    ));
#689 = CARTESIAN_POINT('',(1.37694306155,-10.73732273988,-6.480465673709
    ));
#690 = CARTESIAN_POINT('',(1.303314754025,-10.74691843189,
    -6.313849209549));
#691 = CARTESIAN_POINT('',(1.203883172585,-10.7589430866,-6.15547186733)
  );
#692 = CARTESIAN_POINT('',(1.077678905006,-10.77232295794,-6.00967099546
    ));
#693 = CARTESIAN_POINT('',(0.788541063971,-10.79710073105,
    -5.770475371053));
#694 = CARTESIAN_POINT('',(0.627181278547,-10.80892020652,
    -5.669385997194));
#695 = CARTESIAN_POINT('',(0.443494148287,-10.81929679025,
    -5.590593301615));
#696 = CARTESIAN_POINT('',(0.244107158151,-10.82619890649,
    -5.541661823238));
#697 = CARTESIAN_POINT('',(3.765945518378E-02,-10.8282049314,
    -5.526601437176));
#698 = CARTESIAN_POINT('',(-0.166666526699,-10.82545608152,
    -5.545760677235));
#699 = CARTESIAN_POINT('',(-0.557855769641,-10.81241762379,
    -5.646201003468));
#700 = CARTESIAN_POINT('',(-0.737987663999,-10.80221315041,
    -5.726903301075));
#701 = CARTESIAN_POINT('',(-0.89768422052,-10.78979212471,
    -5.831267381697));
#702 = CARTESIAN_POINT('',(-1.035265928531,-10.77675923603,
    -5.953787031481));
#703 = CARTESIAN_POINT('',(-1.150002193712,-10.76443758283,
    -6.089479262038));
#704 = CARTESIAN_POINT('',(-1.241968812944,-10.75374892036,
    -6.233797823915));
#705 = CARTESIAN_POINT('',(-1.396417653171,-10.73489056557,
    -6.562018316616));
#706 = CARTESIAN_POINT('',(-1.450462304071,-10.72750639954,
    -6.751151062941));
#707 = CARTESIAN_POINT('',(-1.474715063126,-10.72398833097,
    -6.945713196674));
#708 = CARTESIAN_POINT('',(-1.46907628899,-10.72479205459,
    -7.142023266267));
#709 = CARTESIAN_POINT('',(-1.433213968187,-10.72993118265,
    -7.33610410505));
#710 = CARTESIAN_POINT('',(-1.366939231485,-10.73878504869,
    -7.523383699577));
#711 = CARTESIAN_POINT('',(-1.196774270289,-10.75889815083,
    -7.832912614914));
#712 = CARTESIAN_POINT('',(-1.103936520473,-10.76927081356,
    -7.962515560051));
#713 = CARTESIAN_POINT('',(-0.99158519323,-10.78079685137,
    -8.083770570812));
#714 = CARTESIAN_POINT('',(-0.859848109264,-10.79267057765,
    -8.19284402751));
#715 = CARTESIAN_POINT('',(-0.709531629781,-10.80380184429,
    -8.285653488844));
#716 = CARTESIAN_POINT('',(-0.542203326646,-10.81293932453,
    -8.357817860826));
#717 = CARTESIAN_POINT('',(-0.181180332738,-10.82497233191,
    -8.450512810751));
#718 = CARTESIAN_POINT('',(7.79243362046E-03,-10.82779490597,
    -8.470528913236));
#719 = CARTESIAN_POINT('',(0.199504584529,-10.82658015237,
    -8.461205260263));
#720 = CARTESIAN_POINT('',(0.386304057893,-10.82113033344,
    -8.422441614948));
#721 = CARTESIAN_POINT('',(0.56089831185,-10.81242908401,-8.357128103871
    ));
#722 = CARTESIAN_POINT('',(0.717380810333,-10.80205088925,
    -8.271090899893));
#723 = CARTESIAN_POINT('',(1.026768980832,-10.77761586584,
    -8.046307236363));
#724 = CARTESIAN_POINT('',(1.170472036447,-10.76295422814,
    -7.895641847746));
#725 = CARTESIAN_POINT('',(1.283551166862,-10.74948736297,
    -7.729343708228));
#726 = CARTESIAN_POINT('',(1.36717034936,-10.73864438078,-7.552906617879
    ));
#727 = CARTESIAN_POINT('',(1.422393033819,-10.73117852361,-7.37048673816
    ));
#728 = CARTESIAN_POINT('',(1.45,-10.72744727323,-7.185232360342));
#729 = CARTESIAN_POINT('',(1.45,-10.72744727323,-7.));
#730 = PCURVE('',#410,#731);
#731 = DEFINITIONAL_REPRESENTATION('',(#732),#777);
#732 = B_SPLINE_CURVE_WITH_KNOTS('',7,(#733,#734,#735,#736,#737,#738,
    #739,#740,#741,#742,#743,#744,#745,#746,#747,#748,#749,#750,#751,
    #752,#753,#754,#755,#756,#757,#758,#759,#760,#761,#762,#763,#764,
    #765,#766,#767,#768,#769,#770,#771,#772,#773,#774,#775,#776),
  .UNSPECIFIED.,.F.,.F.,(8,6,6,6,6,6,6,8),(0.,0.15181995642,
    0.286133339373,0.422747190192,0.58742887476,0.713761103197,
    0.838574735702,1.),.UNSPECIFIED.);
#733 = CARTESIAN_POINT('',(0.,-24.37744727323));
#734 = CARTESIAN_POINT('',(-0.119984910775,-24.37744727323));
#735 = CARTESIAN_POINT('',(-0.239958610751,-24.38073888631));
#736 = CARTESIAN_POINT('',(-0.361122976899,-24.38732273988));
#737 = CARTESIAN_POINT('',(-0.484487438493,-24.39691843189));
#738 = CARTESIAN_POINT('',(-0.611172693209,-24.4089430866));
#739 = CARTESIAN_POINT('',(-0.74233118264,-24.42232295794));
#740 = CARTESIAN_POINT('',(-1.001126744533,-24.44710073105));
#741 = CARTESIAN_POINT('',(-1.131311841072,-24.45892020652));
#742 = CARTESIAN_POINT('',(-1.266479613815,-24.46929679025));
#743 = CARTESIAN_POINT('',(-1.404638993018,-24.47619890649));
#744 = CARTESIAN_POINT('',(-1.544265549468,-24.4782049314));
#745 = CARTESIAN_POINT('',(-1.684038068872,-24.47545608152));
#746 = CARTESIAN_POINT('',(-1.962574487441,-24.46241762379));
#747 = CARTESIAN_POINT('',(-2.096742456623,-24.45221315041));
#748 = CARTESIAN_POINT('',(-2.225838562962,-24.43979212471));
#749 = CARTESIAN_POINT('',(-2.350523311746,-24.42675923603));
#750 = CARTESIAN_POINT('',(-2.471276059868,-24.41443758283));
#751 = CARTESIAN_POINT('',(-2.588338057771,-24.40374892036));
#752 = CARTESIAN_POINT('',(-2.838506263801,-24.38489056557));
#753 = CARTESIAN_POINT('',(-2.972398836351,-24.37750639954));
#754 = CARTESIAN_POINT('',(-3.105103303525,-24.37398833097));
#755 = CARTESIAN_POINT('',(-3.237706644315,-24.37479205459));
#756 = CARTESIAN_POINT('',(-3.371195805415,-24.37993118265));
#757 = CARTESIAN_POINT('',(-3.506396881698,-24.38878504869));
#758 = CARTESIAN_POINT('',(-3.74999677924,-24.40889815083));
#759 = CARTESIAN_POINT('',(-3.859166682664,-24.41927081356));
#760 = CARTESIAN_POINT('',(-3.971708379987,-24.43079685137));
#761 = CARTESIAN_POINT('',(-4.087748569082,-24.44267057765));
#762 = CARTESIAN_POINT('',(-4.20760509219,-24.45380184429));
#763 = CARTESIAN_POINT('',(-4.331755746375,-24.46293932453));
#764 = CARTESIAN_POINT('',(-4.588813049352,-24.47497233191));
#765 = CARTESIAN_POINT('',(-4.718477018894,-24.47779490597));
#766 = CARTESIAN_POINT('',(-4.848347786026,-24.47658015237));
#767 = CARTESIAN_POINT('',(-4.977147977871,-24.47113033344));
#768 = CARTESIAN_POINT('',(-5.103518202093,-24.46242908401));
#769 = CARTESIAN_POINT('',(-5.225703912287,-24.45205088925));
#770 = CARTESIAN_POINT('',(-5.489445160681,-24.42761586584));
#771 = CARTESIAN_POINT('',(-5.63069958014,-24.41295422814));
#772 = CARTESIAN_POINT('',(-5.766570404876,-24.39948736297));
#773 = CARTESIAN_POINT('',(-5.898462813862,-24.38864438078));
#774 = CARTESIAN_POINT('',(-6.027677887952,-24.38117852361));
#775 = CARTESIAN_POINT('',(-6.155438851771,-24.37744727323));
#776 = CARTESIAN_POINT('',(-6.28318530718,-24.37744727323));
#777 = ( GEOMETRIC_REPRESENTATION_CONTEXT(2) 
PARAMETRIC_REPRESENTATION_CONTEXT() REPRESENTATION_CONTEXT('2D SPACE',''
  ) );
#778 = PCURVE('',#494,#779);
#779 = DEFINITIONAL_REPRESENTATION('',(#780),#825);
#780 = B_SPLINE_CURVE_WITH_KNOTS('',7,(#781,#782,#783,#784,#785,#786,
    #787,#788,#789,#790,#791,#792,#793,#794,#795,#796,#797,#798,#799,
    #800,#801,#802,#803,#804,#805,#806,#807,#808,#809,#810,#811,#812,
    #813,#814,#815,#816,#817,#818,#819,#820,#821,#822,#823,#824),
  .UNSPECIFIED.,.T.,.F.,(8,6,6,6,6,6,6,8),(0.,0.15181995642,
    0.286133339373,0.422747190192,0.58742887476,0.713761103197,
    0.838574735702,1.),.UNSPECIFIED.);
#781 = CARTESIAN_POINT('',(-4.84674200255,-9.));
#782 = CARTESIAN_POINT('',(-4.84674200255,-9.173978120624));
#783 = CARTESIAN_POINT('',(-4.844471832606,-9.34794083782));
#784 = CARTESIAN_POINT('',(-4.839931719318,-9.519534326291));
#785 = CARTESIAN_POINT('',(-4.833072573176,-9.686150790451));
#786 = CARTESIAN_POINT('',(-4.823821190753,-9.84452813267));
#787 = CARTESIAN_POINT('',(-4.812099640364,-9.99032900454));
#788 = CARTESIAN_POINT('',(-4.785291550832,-10.22952462894));
#789 = CARTESIAN_POINT('',(-4.770346582102,-10.3306140028));
#790 = CARTESIAN_POINT('',(-4.753354437834,-10.40940669838));
#791 = CARTESIAN_POINT('',(-4.73493354134,-10.45833817676));
#792 = CARTESIAN_POINT('',(-4.715869723125,-10.47339856282));
#793 = CARTESIAN_POINT('',(-4.696996318943,-10.45423932276));
#794 = CARTESIAN_POINT('',(-4.660838677323,-10.35379899653));
#795 = CARTESIAN_POINT('',(-4.644176157421,-10.27309669892));
#796 = CARTESIAN_POINT('',(-4.629383615693,-10.1687326183));
#797 = CARTESIAN_POINT('',(-4.616619022482,-10.04621296851));
#798 = CARTESIAN_POINT('',(-4.605959597505,-9.910520737962));
#799 = CARTESIAN_POINT('',(-4.597406784558,-9.766202176085));
#800 = CARTESIAN_POINT('',(-4.583033030046,-9.437981683384));
#801 = CARTESIAN_POINT('',(-4.577994581485,-9.248848937059));
#802 = CARTESIAN_POINT('',(-4.575730481123,-9.054286803326));
#803 = CARTESIAN_POINT('',(-4.576256698736,-8.857976733733));
#804 = CARTESIAN_POINT('',(-4.579603623234,-8.66389589495));
#805 = CARTESIAN_POINT('',(-4.585779681918,-8.476616300423));
#806 = CARTESIAN_POINT('',(-4.601608734968,-8.167087385086));
#807 = CARTESIAN_POINT('',(-4.610238162432,-8.037484439949));
#808 = CARTESIAN_POINT('',(-4.620670781096,-7.916229429188));
#809 = CARTESIAN_POINT('',(-4.632887977989,-7.807155972491));
#810 = CARTESIAN_POINT('',(-4.646808316658,-7.714346511156));
#811 = CARTESIAN_POINT('',(-4.662285433425,-7.642182139174));
#812 = CARTESIAN_POINT('',(-4.695654807113,-7.549487189249));
#813 = CARTESIAN_POINT('',(-4.713110895804,-7.529471086764));
#814 = CARTESIAN_POINT('',(-4.730814791347,-7.538794739737));
#815 = CARTESIAN_POINT('',(-4.748070907711,-7.577558385052));
#816 = CARTESIAN_POINT('',(-4.764216244064,-7.642871896129));
#817 = CARTESIAN_POINT('',(-4.778702488627,-7.728909100107));
#818 = CARTESIAN_POINT('',(-4.807372381616,-7.953692763637));
#819 = CARTESIAN_POINT('',(-4.820712913608,-8.104358152254));
#820 = CARTESIAN_POINT('',(-4.831231481923,-8.270656291772));
#821 = CARTESIAN_POINT('',(-4.839020721173,-8.447093382121));
#822 = CARTESIAN_POINT('',(-4.844168513073,-8.62951326184));
#823 = CARTESIAN_POINT('',(-4.84674200255,-8.814767639658));
#824 = CARTESIAN_POINT('',(-4.84674200255,-9.));
#825 = ( GEOMETRIC_REPRESENTATION_CONTEXT(2) 
PARAMETRIC_REPRESENTATION_CONTEXT() REPRESENTATION_CONTEXT('2D SPACE',''
  ) );
#826 = ORIENTED_EDGE('',*,*,#827,.T.);
#827 = EDGE_CURVE('',#682,#313,#828,.T.);
#828 = SEAM_CURVE('',#829,(#833,#840),.PCURVE_S1.);
#829 = LINE('',#830,#831);
#830 = CARTESIAN_POINT('',(1.45,13.65,-7.));
#831 = VECTOR('',#832,1.);
#832 = DIRECTION('',(0.,-1.,0.));
#833 = PCURVE('',#410,#834);
#834 = DEFINITIONAL_REPRESENTATION('',(#835),#839);
#835 = LINE('',#836,#837);
#836 = CARTESIAN_POINT('',(-6.28318530718,0.));
#837 = VECTOR('',#838,1.);
#838 = DIRECTION('',(-0.,-1.));
#839 = ( GEOMETRIC_REPRESENTATION_CONTEXT(2) 
PARAMETRIC_REPRESENTATION_CONTEXT() REPRESENTATION_CONTEXT('2D SPACE',''
  ) );
#840 = PCURVE('',#410,#841);
#841 = DEFINITIONAL_REPRESENTATION('',(#842),#846);
#842 = LINE('',#843,#844);
#843 = CARTESIAN_POINT('',(-0.,0.));
#844 = VECTOR('',#845,1.);
#845 = DIRECTION('',(-0.,-1.));
#846 = ( GEOMETRIC_REPRESENTATION_CONTEXT(2) 
PARAMETRIC_REPRESENTATION_CONTEXT() REPRESENTATION_CONTEXT('2D SPACE',''
  ) );
#847 = ORIENTED_EDGE('',*,*,#312,.T.);
#848 = ORIENTED_EDGE('',*,*,#827,.F.);
#849 = ADVANCED_FACE('',(#850,#904,#907),#494,.F.);
#850 = FACE_BOUND('',#851,.T.);
#851 = EDGE_LOOP('',(#852,#875,#876,#877));
#852 = ORIENTED_EDGE('',*,*,#853,.F.);
#853 = EDGE_CURVE('',#474,#854,#856,.T.);
#854 = VERTEX_POINT('',#855);
#855 = CARTESIAN_POINT('',(10.825,0.,0.));
#856 = SEAM_CURVE('',#857,(#861,#868),.PCURVE_S1.);
#857 = LINE('',#858,#859);
#858 = CARTESIAN_POINT('',(10.825,0.,-16.));
#859 = VECTOR('',#860,1.);
#860 = DIRECTION('',(0.,0.,1.));
#861 = PCURVE('',#494,#862);
#862 = DEFINITIONAL_REPRESENTATION('',(#863),#867);
#863 = LINE('',#864,#865);
#864 = CARTESIAN_POINT('',(-6.28318530718,0.));
#865 = VECTOR('',#866,1.);
#866 = DIRECTION('',(-0.,-1.));
#867 = ( GEOMETRIC_REPRESENTATION_CONTEXT(2) 
PARAMETRIC_REPRESENTATION_CONTEXT() REPRESENTATION_CONTEXT('2D SPACE',''
  ) );
#868 = PCURVE('',#494,#869);
#869 = DEFINITIONAL_REPRESENTATION('',(#870),#874);
#870 = LINE('',#871,#872);
#871 = CARTESIAN_POINT('',(-0.,0.));
#872 = VECTOR('',#873,1.);
#873 = DIRECTION('',(-0.,-1.));
#874 = ( GEOMETRIC_REPRESENTATION_CONTEXT(2) 
PARAMETRIC_REPRESENTATION_CONTEXT() REPRESENTATION_CONTEXT('2D SPACE',''
  ) );
#875 = ORIENTED_EDGE('',*,*,#473,.T.);
#876 = ORIENTED_EDGE('',*,*,#853,.T.);
#877 = ORIENTED_EDGE('',*,*,#878,.T.);
#878 = EDGE_CURVE('',#854,#854,#879,.T.);
#879 = SURFACE_CURVE('',#880,(#885,#892),.PCURVE_S1.);
#880 = CIRCLE('',#881,10.825);
#881 = AXIS2_PLACEMENT_3D('',#882,#883,#884);
#882 = CARTESIAN_POINT('',(0.,0.,0.));
#883 = DIRECTION('',(0.,0.,1.));
#884 = DIRECTION('',(1.,0.,0.));
#885 = PCURVE('',#494,#886);
#886 = DEFINITIONAL_REPRESENTATION('',(#887),#891);
#887 = LINE('',#888,#889);
#888 = CARTESIAN_POINT('',(-0.,-16.));
#889 = VECTOR('',#890,1.);
#890 = DIRECTION('',(-1.,0.));
#891 = ( GEOMETRIC_REPRESENTATION_CONTEXT(2) 
PARAMETRIC_REPRESENTATION_CONTEXT() REPRESENTATION_CONTEXT('2D SPACE',''
  ) );
#892 = PCURVE('',#893,#898);
#893 = PLANE('',#894);
#894 = AXIS2_PLACEMENT_3D('',#895,#896,#897);
#895 = CARTESIAN_POINT('',(-7.579344845484E-16,1.073975582404E-15,0.));
#896 = DIRECTION('',(0.,0.,1.));
#897 = DIRECTION('',(1.,0.,-0.));
#898 = DEFINITIONAL_REPRESENTATION('',(#899),#903);
#899 = CIRCLE('',#900,10.825);
#900 = AXIS2_PLACEMENT_2D('',#901,#902);
#901 = CARTESIAN_POINT('',(7.579344845484E-16,-1.073975582404E-15));
#902 = DIRECTION('',(1.,0.));
#903 = ( GEOMETRIC_REPRESENTATION_CONTEXT(2) 
PARAMETRIC_REPRESENTATION_CONTEXT() REPRESENTATION_CONTEXT('2D SPACE',''
  ) );
#904 = FACE_BOUND('',#905,.T.);
#905 = EDGE_LOOP('',(#906));
#906 = ORIENTED_EDGE('',*,*,#533,.F.);
#907 = FACE_BOUND('',#908,.T.);
#908 = EDGE_LOOP('',(#909));
#909 = ORIENTED_EDGE('',*,*,#681,.T.);
#910 = ADVANCED_FACE('',(#911),#893,.F.);
#911 = FACE_BOUND('',#912,.F.);
#912 = EDGE_LOOP('',(#913));
#913 = ORIENTED_EDGE('',*,*,#878,.T.);
#914 = ( GEOMETRIC_REPRESENTATION_CONTEXT(3) 
GLOBAL_UNCERTAINTY_ASSIGNED_CONTEXT((#918)) GLOBAL_UNIT_ASSIGNED_CONTEXT
((#915,#916,#917)) REPRESENTATION_CONTEXT('Context #1',
  '3D Context with UNIT and UNCERTAINTY') );
#915 = ( LENGTH_UNIT() NAMED_UNIT(*) SI_UNIT(.MILLI.,.METRE.) );
#916 = ( NAMED_UNIT(*) PLANE_ANGLE_UNIT() SI_UNIT($,.RADIAN.) );
#917 = ( NAMED_UNIT(*) SI_UNIT($,.STERADIAN.) SOLID_ANGLE_UNIT() );
#918 = UNCERTAINTY_MEASURE_WITH_UNIT(LENGTH_MEASURE(1.E-07),#915,
  'distance_accuracy_value','confusion accuracy');
#919 = PRODUCT_RELATED_PRODUCT_CATEGORY('part',$,(#7));
ENDSEC;
END-ISO-10303-21;
