ISO-10303-21;
HEADER;
FILE_DESCRIPTION(('Open CASCADE Model'),'2;1');
FILE_NAME('Open CASCADE Shape Model','2026-08-30T21:53:22',('Author'),(
    'Open CASCADE'),'Open CASCADE STEP processor 7.9','Open CASCADE 7.9'
  ,'Unknown');
FILE_SCHEMA(('AUTOMOTIVE_DESIGN { 1 0 10303 214 1 1 1 1 }'));
ENDSEC;
DATA;
#1 = APPLICATION_PROTOCOL_DEFINITION('international standard',
  'automotive_design',2000,#2);
#2 = APPLICATION_CONTEXT(
  'core data for automotive mechanical design processes');
#3 = SHAPE_DEFINITION_REPRESENTATION(#4,#10);
#4 = PRODUCT_DEFINITION_SHAPE('','',#5);
#5 = PRODUCT_DEFINITION('design','',#6,#9);
#6 = PRODUCT_DEFINITION_FORMATION('','',#7);
#7 = PRODUCT('Open CASCADE STEP translator 7.9 5',
  'Open CASCADE STEP translator 7.9 5','',(#8));
#8 = PRODUCT_CONTEXT('',#2,'mechanical');
#9 = PRODUCT_DEFINITION_CONTEXT('part definition',#2,'design');
#10 = ADVANCED_BREP_SHAPE_REPRESENTATION('',(#11,#15),#1006);
#11 = AXIS2_PLACEMENT_3D('',#12,#13,#14);
#12 = CARTESIAN_POINT('',(0.,0.,0.));
#13 = DIRECTION('',(0.,0.,1.));
#14 = DIRECTION('',(1.,0.,-0.));
#15 = MANIFOLD_SOLID_BREP('',#16);
#16 = CLOSED_SHELL('',(#17,#410,#449,#501,#673,#845,#906,#945,#979));
#17 = ADVANCED_FACE('',(#18,#104,#257),#31,.T.);
#18 = FACE_BOUND('',#19,.F.);
#19 = EDGE_LOOP('',(#20,#54,#77,#103));
#20 = ORIENTED_EDGE('',*,*,#21,.F.);
#21 = EDGE_CURVE('',#22,#22,#24,.T.);
#22 = VERTEX_POINT('',#23);
#23 = CARTESIAN_POINT('',(14.65,0.,0.));
#24 = SURFACE_CURVE('',#25,(#30,#42),.PCURVE_S1.);
#25 = CIRCLE('',#26,14.65);
#26 = AXIS2_PLACEMENT_3D('',#27,#28,#29);
#27 = CARTESIAN_POINT('',(0.,0.,0.));
#28 = DIRECTION('',(0.,0.,1.));
#29 = DIRECTION('',(1.,0.,0.));
#30 = PCURVE('',#31,#36);
#31 = CYLINDRICAL_SURFACE('',#32,14.65);
#32 = AXIS2_PLACEMENT_3D('',#33,#34,#35);
#33 = CARTESIAN_POINT('',(0.,0.,0.));
#34 = DIRECTION('',(-0.,-0.,-1.));
#35 = DIRECTION('',(1.,0.,0.));
#36 = DEFINITIONAL_REPRESENTATION('',(#37),#41);
#37 = LINE('',#38,#39);
#38 = CARTESIAN_POINT('',(-0.,0.));
#39 = VECTOR('',#40,1.);
#40 = DIRECTION('',(-1.,0.));
#41 = ( GEOMETRIC_REPRESENTATION_CONTEXT(2) 
PARAMETRIC_REPRESENTATION_CONTEXT() REPRESENTATION_CONTEXT('2D SPACE',''
  ) );
#42 = PCURVE('',#43,#48);
#43 = PLANE('',#44);
#44 = AXIS2_PLACEMENT_3D('',#45,#46,#47);
#45 = CARTESIAN_POINT('',(0.,8.954141205209E-16,0.));
#46 = DIRECTION('',(0.,0.,1.));
#47 = DIRECTION('',(1.,0.,-0.));
#48 = DEFINITIONAL_REPRESENTATION('',(#49),#53);
#49 = CIRCLE('',#50,14.65);
#50 = AXIS2_PLACEMENT_2D('',#51,#52);
#51 = CARTESIAN_POINT('',(0.,-8.954141205209E-16));
#52 = DIRECTION('',(1.,0.));
#53 = ( GEOMETRIC_REPRESENTATION_CONTEXT(2) 
PARAMETRIC_REPRESENTATION_CONTEXT() REPRESENTATION_CONTEXT('2D SPACE',''
  ) );
#54 = ORIENTED_EDGE('',*,*,#55,.T.);
#55 = EDGE_CURVE('',#22,#56,#58,.T.);
#56 = VERTEX_POINT('',#57);
#57 = CARTESIAN_POINT('',(14.65,0.,20.));
#58 = SEAM_CURVE('',#59,(#63,#70),.PCURVE_S1.);
#59 = LINE('',#60,#61);
#60 = CARTESIAN_POINT('',(14.65,0.,0.));
#61 = VECTOR('',#62,1.);
#62 = DIRECTION('',(0.,0.,1.));
#63 = PCURVE('',#31,#64);
#64 = DEFINITIONAL_REPRESENTATION('',(#65),#69);
#65 = LINE('',#66,#67);
#66 = CARTESIAN_POINT('',(-6.28318530718,0.));
#67 = VECTOR('',#68,1.);
#68 = DIRECTION('',(-0.,-1.));
#69 = ( GEOMETRIC_REPRESENTATION_CONTEXT(2) 
PARAMETRIC_REPRESENTATION_CONTEXT() REPRESENTATION_CONTEXT('2D SPACE',''
  ) );
#70 = PCURVE('',#31,#71);
#71 = DEFINITIONAL_REPRESENTATION('',(#72),#76);
#72 = LINE('',#73,#74);
#73 = CARTESIAN_POINT('',(-0.,0.));
#74 = VECTOR('',#75,1.);
#75 = DIRECTION('',(-0.,-1.));
#76 = ( GEOMETRIC_REPRESENTATION_CONTEXT(2) 
PARAMETRIC_REPRESENTATION_CONTEXT() REPRESENTATION_CONTEXT('2D SPACE',''
  ) );
#77 = ORIENTED_EDGE('',*,*,#78,.T.);
#78 = EDGE_CURVE('',#56,#56,#79,.T.);
#79 = SURFACE_CURVE('',#80,(#85,#92),.PCURVE_S1.);
#80 = CIRCLE('',#81,14.65);
#81 = AXIS2_PLACEMENT_3D('',#82,#83,#84);
#82 = CARTESIAN_POINT('',(0.,0.,20.));
#83 = DIRECTION('',(0.,0.,1.));
#84 = DIRECTION('',(1.,0.,0.));
#85 = PCURVE('',#31,#86);
#86 = DEFINITIONAL_REPRESENTATION('',(#87),#91);
#87 = LINE('',#88,#89);
#88 = CARTESIAN_POINT('',(-0.,-20.));
#89 = VECTOR('',#90,1.);
#90 = DIRECTION('',(-1.,0.));
#91 = ( GEOMETRIC_REPRESENTATION_CONTEXT(2) 
PARAMETRIC_REPRESENTATION_CONTEXT() REPRESENTATION_CONTEXT('2D SPACE',''
  ) );
#92 = PCURVE('',#93,#98);
#93 = CONICAL_SURFACE('',#94,14.65,0.44344833642);
#94 = AXIS2_PLACEMENT_3D('',#95,#96,#97);
#95 = CARTESIAN_POINT('',(0.,0.,20.));
#96 = DIRECTION('',(-0.,-0.,-1.));
#97 = DIRECTION('',(1.,0.,0.));
#98 = DEFINITIONAL_REPRESENTATION('',(#99),#102);
#99 = B_SPLINE_CURVE_WITH_KNOTS('',1,(#100,#101),.UNSPECIFIED.,.F.,.F.,(
    2,2),(0.,6.28318530718),.PIECEWISE_BEZIER_KNOTS.);
#100 = CARTESIAN_POINT('',(0.,0.));
#101 = CARTESIAN_POINT('',(-6.28318530718,0.));
#102 = ( GEOMETRIC_REPRESENTATION_CONTEXT(2) 
PARAMETRIC_REPRESENTATION_CONTEXT() REPRESENTATION_CONTEXT('2D SPACE',''
  ) );
#103 = ORIENTED_EDGE('',*,*,#55,.F.);
#104 = FACE_BOUND('',#105,.F.);
#105 = EDGE_LOOP('',(#106));
#106 = ORIENTED_EDGE('',*,*,#107,.F.);
#107 = EDGE_CURVE('',#108,#108,#110,.T.);
#108 = VERTEX_POINT('',#109);
#109 = CARTESIAN_POINT('',(1.45,14.578065715314,10.));
#110 = SURFACE_CURVE('',#111,(#156,#204),.PCURVE_S1.);
#111 = B_SPLINE_CURVE_WITH_KNOTS('',7,(#112,#113,#114,#115,#116,#117,
    #118,#119,#120,#121,#122,#123,#124,#125,#126,#127,#128,#129,#130,
    #131,#132,#133,#134,#135,#136,#137,#138,#139,#140,#141,#142,#143,
    #144,#145,#146,#147,#148,#149,#150,#151,#152,#153,#154,#155),
  .UNSPECIFIED.,.T.,.F.,(8,6,6,6,6,6,6,8),(0.,0.151854301737,
    0.286122135747,0.422739659679,0.58739236216,0.713725981035,
    0.83851500205,1.),.UNSPECIFIED.);
#112 = CARTESIAN_POINT('',(1.45,14.578065715314,10.));
#113 = CARTESIAN_POINT('',(1.45,14.578065715314,10.173845385867));
#114 = CARTESIAN_POINT('',(1.425684045418,14.5804841834,10.347685569366)
  );
#115 = CARTESIAN_POINT('',(1.377049245272,14.585322169511,
    10.519204364958));
#116 = CARTESIAN_POINT('',(1.30349207264,14.592379029793,10.685819092553
    ));
#117 = CARTESIAN_POINT('',(1.204091327705,14.601236087635,
    10.844270004643));
#118 = CARTESIAN_POINT('',(1.077838129816,14.611106870737,
    10.990197282322));
#119 = CARTESIAN_POINT('',(0.788476993048,14.629399032071,
    11.229577633024));
#120 = CARTESIAN_POINT('',(0.627097080552,14.63812279601,11.330652943393
    ));
#121 = CARTESIAN_POINT('',(0.443410483702,14.64578597573,11.409431529038
    ));
#122 = CARTESIAN_POINT('',(0.244020964151,14.650888342446,11.45835342278
    ));
#123 = CARTESIAN_POINT('',(3.7577880116E-02,14.65236807247,
    11.473395631086));
#124 = CARTESIAN_POINT('',(-0.166719057134,14.650335064248,
    11.454225835241));
#125 = CARTESIAN_POINT('',(-0.557874542113,14.640704105349,
    11.35379417658));
#126 = CARTESIAN_POINT('',(-0.738055328141,14.63316562315,
    11.273072757823));
#127 = CARTESIAN_POINT('',(-0.897799997134,14.623992130677,
    11.168663865787));
#128 = CARTESIAN_POINT('',(-1.035402488048,14.614375548722,
    11.046089467022));
#129 = CARTESIAN_POINT('',(-1.150119566363,14.605293997553,
    10.910362441356));
#130 = CARTESIAN_POINT('',(-1.242031263005,14.597424205614,
    10.766069462949));
#131 = CARTESIAN_POINT('',(-1.396325261821,14.583550464005,
    10.438178024996));
#132 = CARTESIAN_POINT('',(-1.450429360073,14.578112407241,
    10.249081221468));
#133 = CARTESIAN_POINT('',(-1.474750381816,14.575517357617,
    10.054411693526));
#134 = CARTESIAN_POINT('',(-1.469116520556,14.576107944045,9.85793220961
    ));
#135 = CARTESIAN_POINT('',(-1.433187728765,14.579895600893,
    9.663724693596));
#136 = CARTESIAN_POINT('',(-1.366849990547,14.586416513923,9.47645397176
    ));
#137 = CARTESIAN_POINT('',(-1.196828926667,14.601218804835,
    9.167186804667));
#138 = CARTESIAN_POINT('',(-1.104031509212,14.608858987421,9.03759914008
    ));
#139 = CARTESIAN_POINT('',(-0.991688645514,14.61735676453,8.916314235333
    ));
#140 = CARTESIAN_POINT('',(-0.859928248645,14.626119445631,
    8.807198347128));
#141 = CARTESIAN_POINT('',(-0.709570156332,14.634340213398,
    8.714357275987));
#142 = CARTESIAN_POINT('',(-0.542206014157,14.641089892982,
    8.642182829209));
#143 = CARTESIAN_POINT('',(-0.181215031501,14.649978147015,
    8.549496098377));
#144 = CARTESIAN_POINT('',(7.730330073794E-03,14.652064820698,
    8.529476005895));
#145 = CARTESIAN_POINT('',(0.199428674002,14.651169149604,8.538786589858
    ));
#146 = CARTESIAN_POINT('',(0.386220699853,14.647141131136,8.577538676523
    ));
#147 = CARTESIAN_POINT('',(0.56081153453,14.640714544565,8.642836223527)
  );
#148 = CARTESIAN_POINT('',(0.717314167333,14.633053008725,8.728860681134
    ));
#149 = CARTESIAN_POINT('',(1.026954210286,14.615008611901,8.953827340712
    ));
#150 = CARTESIAN_POINT('',(1.170718087249,14.604188482757,9.10463516408)
  );
#151 = CARTESIAN_POINT('',(1.28376426756,14.594266728671,9.271022945999)
  );
#152 = CARTESIAN_POINT('',(1.367300700274,14.58629234307,9.447467442555)
  );
#153 = CARTESIAN_POINT('',(1.422439795424,14.580806734639,9.629808617103
    ));
#154 = CARTESIAN_POINT('',(1.45,14.578065715314,9.814924568913));
#155 = CARTESIAN_POINT('',(1.45,14.578065715314,10.));
#156 = PCURVE('',#31,#157);
#157 = DEFINITIONAL_REPRESENTATION('',(#158),#203);
#158 = B_SPLINE_CURVE_WITH_KNOTS('',7,(#159,#160,#161,#162,#163,#164,
    #165,#166,#167,#168,#169,#170,#171,#172,#173,#174,#175,#176,#177,
    #178,#179,#180,#181,#182,#183,#184,#185,#186,#187,#188,#189,#190,
    #191,#192,#193,#194,#195,#196,#197,#198,#199,#200,#201,#202),
  .UNSPECIFIED.,.T.,.F.,(8,6,6,6,6,6,6,8),(0.,0.151854301737,
    0.286122135747,0.422739659679,0.58739236216,0.713725981035,
    0.83851500205,1.),.UNSPECIFIED.);
#159 = CARTESIAN_POINT('',(-1.471657901564,-10.));
#160 = CARTESIAN_POINT('',(-1.471657901564,-10.17384538586));
#161 = CARTESIAN_POINT('',(-1.473325883689,-10.34768556936));
#162 = CARTESIAN_POINT('',(-1.476662047467,-10.51920436495));
#163 = CARTESIAN_POINT('',(-1.481706042146,-10.68581909255));
#164 = CARTESIAN_POINT('',(-1.48851760045,-10.84427000464));
#165 = CARTESIAN_POINT('',(-1.497160905249,-10.99019728232));
#166 = CARTESIAN_POINT('',(-1.51695194525,-11.22957763302));
#167 = CARTESIAN_POINT('',(-1.527983246036,-11.33065294339));
#168 = CARTESIAN_POINT('',(-1.540531004833,-11.40943152903));
#169 = CARTESIAN_POINT('',(-1.554141929197,-11.45835342278));
#170 = CARTESIAN_POINT('',(-1.56823055087,-11.47339563108));
#171 = CARTESIAN_POINT('',(-1.582174942487,-11.45422583524));
#172 = CARTESIAN_POINT('',(-1.608883067597,-11.35379417658));
#173 = CARTESIAN_POINT('',(-1.621191033957,-11.27307275782));
#174 = CARTESIAN_POINT('',(-1.632111224134,-11.16866386578));
#175 = CARTESIAN_POINT('',(-1.641526026027,-11.04608946702));
#176 = CARTESIAN_POINT('',(-1.649380757303,-10.91036244135));
#177 = CARTESIAN_POINT('',(-1.655677495224,-10.76606946294));
#178 = CARTESIAN_POINT('',(-1.66625199964,-10.43817802499));
#179 = CARTESIAN_POINT('',(-1.669963515493,-10.24908122146));
#180 = CARTESIAN_POINT('',(-1.671633160784,-10.05441169352));
#181 = CARTESIAN_POINT('',(-1.671246469651,-9.85793220961));
#182 = CARTESIAN_POINT('',(-1.66878033715,-9.663724693596));
#183 = CARTESIAN_POINT('',(-1.664230622628,-9.47645397176));
#184 = CARTESIAN_POINT('',(-1.652581189017,-9.167186804667));
#185 = CARTESIAN_POINT('',(-1.646225530473,-9.03759914008));
#186 = CARTESIAN_POINT('',(-1.638535460859,-8.916314235333));
#187 = CARTESIAN_POINT('',(-1.629522446037,-8.807198347128));
#188 = CARTESIAN_POINT('',(-1.619245270801,-8.714357275987));
#189 = CARTESIAN_POINT('',(-1.607813219363,-8.642182829209));
#190 = CARTESIAN_POINT('',(-1.583164728676,-8.549496098377));
#191 = CARTESIAN_POINT('',(-1.570267826378,-8.529476005895));
#192 = CARTESIAN_POINT('',(-1.55718513246,-8.538786589858));
#193 = CARTESIAN_POINT('',(-1.544434898542,-8.577538676523));
#194 = CARTESIAN_POINT('',(-1.532510761986,-8.642836223527));
#195 = CARTESIAN_POINT('',(-1.521815666523,-8.728860681134));
#196 = CARTESIAN_POINT('',(-1.500643968944,-8.953827340712));
#197 = CARTESIAN_POINT('',(-1.490804390117,-9.10463516408));
#198 = CARTESIAN_POINT('',(-1.483058799674,-9.271022945999));
#199 = CARTESIAN_POINT('',(-1.477330759771,-9.447467442555));
#200 = CARTESIAN_POINT('',(-1.47354842719,-9.629808617103));
#201 = CARTESIAN_POINT('',(-1.471657901564,-9.814924568913));
#202 = CARTESIAN_POINT('',(-1.471657901564,-10.));
#203 = ( GEOMETRIC_REPRESENTATION_CONTEXT(2) 
PARAMETRIC_REPRESENTATION_CONTEXT() REPRESENTATION_CONTEXT('2D SPACE',''
  ) );
#204 = PCURVE('',#205,#210);
#205 = CYLINDRICAL_SURFACE('',#206,1.45);
#206 = AXIS2_PLACEMENT_3D('',#207,#208,#209);
#207 = CARTESIAN_POINT('',(0.,15.65,10.));
#208 = DIRECTION('',(-0.,1.,-0.));
#209 = DIRECTION('',(1.,0.,0.));
#210 = DEFINITIONAL_REPRESENTATION('',(#211),#256);
#211 = B_SPLINE_CURVE_WITH_KNOTS('',7,(#212,#213,#214,#215,#216,#217,
    #218,#219,#220,#221,#222,#223,#224,#225,#226,#227,#228,#229,#230,
    #231,#232,#233,#234,#235,#236,#237,#238,#239,#240,#241,#242,#243,
    #244,#245,#246,#247,#248,#249,#250,#251,#252,#253,#254,#255),
  .UNSPECIFIED.,.F.,.F.,(8,6,6,6,6,6,6,8),(0.,0.151854301737,
    0.286122135747,0.422739659679,0.58739236216,0.713725981035,
    0.83851500205,1.),.UNSPECIFIED.);
#212 = CARTESIAN_POINT('',(0.,-1.071934284686));
#213 = CARTESIAN_POINT('',(-0.119893369563,-1.071934284686));
#214 = CARTESIAN_POINT('',(-0.239782547321,-1.0695158166));
#215 = CARTESIAN_POINT('',(-0.360889022978,-1.064677830489));
#216 = CARTESIAN_POINT('',(-0.48423427266,-1.057620970207));
#217 = CARTESIAN_POINT('',(-0.610948599229,-1.048763912365));
#218 = CARTESIAN_POINT('',(-0.742188666966,-1.038893129263));
#219 = CARTESIAN_POINT('',(-1.001184091819,-1.020600967929));
#220 = CARTESIAN_POINT('',(-1.13137365738,-1.01187720399));
#221 = CARTESIAN_POINT('',(-1.266539356191,-1.00421402427));
#222 = CARTESIAN_POINT('',(-1.404697692887,-0.999111657554));
#223 = CARTESIAN_POINT('',(-1.544320484798,-0.99763192753));
#224 = CARTESIAN_POINT('',(-1.684075471841,-0.999664935752));
#225 = CARTESIAN_POINT('',(-1.962587853906,-1.009295894651));
#226 = CARTESIAN_POINT('',(-2.096791749808,-1.01683437685));
#227 = CARTESIAN_POINT('',(-2.225929043797,-1.026007869323));
#228 = CARTESIAN_POINT('',(-2.35064689236,-1.035624451278));
#229 = CARTESIAN_POINT('',(-2.471409294902,-1.044706002447));
#230 = CARTESIAN_POINT('',(-2.588439211135,-1.052575794386));
#231 = CARTESIAN_POINT('',(-2.838356613094,-1.066449535995));
#232 = CARTESIAN_POINT('',(-2.972244188218,-1.071887592759));
#233 = CARTESIAN_POINT('',(-3.105022203688,-1.074482642383));
#234 = CARTESIAN_POINT('',(-3.237732190431,-1.073892055955));
#235 = CARTESIAN_POINT('',(-3.371307951683,-1.070104399107));
#236 = CARTESIAN_POINT('',(-3.506524634692,-1.063583486077));
#237 = CARTESIAN_POINT('',(-3.749918535823,-1.048781195165));
#238 = CARTESIAN_POINT('',(-3.859065812774,-1.041141012579));
#239 = CARTESIAN_POINT('',(-3.971618437045,-1.03264323547));
#240 = CARTESIAN_POINT('',(-4.087687569258,-1.023880554369));
#241 = CARTESIAN_POINT('',(-4.207577519275,-1.015659786602));
#242 = CARTESIAN_POINT('',(-4.3317538328,-1.008910107018));
#243 = CARTESIAN_POINT('',(-4.588788342974,-1.000021852985));
#244 = CARTESIAN_POINT('',(-4.718434724207,-0.997935179302));
#245 = CARTESIAN_POINT('',(-4.848296358789,-0.998830850396));
#246 = CARTESIAN_POINT('',(-4.977089639926,-1.002858868864));
#247 = CARTESIAN_POINT('',(-5.103455357541,-1.009285455435));
#248 = CARTESIAN_POINT('',(-5.225647101751,-1.016946991275));
#249 = CARTESIAN_POINT('',(-5.489603061506,-1.034991388099));
#250 = CARTESIAN_POINT('',(-5.630949177615,-1.045811517243));
#251 = CARTESIAN_POINT('',(-5.766854948424,-1.055733271329));
#252 = CARTESIAN_POINT('',(-5.89872935802,-1.06370765693));
#253 = CARTESIAN_POINT('',(-6.02788160104,-1.069193265361));
#254 = CARTESIAN_POINT('',(-6.155547078843,-1.071934284686));
#255 = CARTESIAN_POINT('',(-6.28318530718,-1.071934284686));
#256 = ( GEOMETRIC_REPRESENTATION_CONTEXT(2) 
PARAMETRIC_REPRESENTATION_CONTEXT() REPRESENTATION_CONTEXT('2D SPACE',''
  ) );
#257 = FACE_BOUND('',#258,.F.);
#258 = EDGE_LOOP('',(#259));
#259 = ORIENTED_EDGE('',*,*,#260,.T.);
#260 = EDGE_CURVE('',#261,#261,#263,.T.);
#261 = VERTEX_POINT('',#262);
#262 = CARTESIAN_POINT('',(1.45,-14.57806571531,10.));
#263 = SURFACE_CURVE('',#264,(#309,#357),.PCURVE_S1.);
#264 = B_SPLINE_CURVE_WITH_KNOTS('',7,(#265,#266,#267,#268,#269,#270,
    #271,#272,#273,#274,#275,#276,#277,#278,#279,#280,#281,#282,#283,
    #284,#285,#286,#287,#288,#289,#290,#291,#292,#293,#294,#295,#296,
    #297,#298,#299,#300,#301,#302,#303,#304,#305,#306,#307,#308),
  .UNSPECIFIED.,.T.,.F.,(8,6,6,6,6,6,6,8),(0.,0.151854301737,
    0.286122135746,0.422739659678,0.587392362154,0.71372598103,
    0.838515002047,1.),.UNSPECIFIED.);
#265 = CARTESIAN_POINT('',(1.45,-14.57806571531,10.));
#266 = CARTESIAN_POINT('',(1.45,-14.57806571531,10.173845385867));
#267 = CARTESIAN_POINT('',(1.425684045418,-14.5804841834,10.347685569366
    ));
#268 = CARTESIAN_POINT('',(1.377049245273,-14.58532216951,
    10.519204364958));
#269 = CARTESIAN_POINT('',(1.303492072639,-14.59237902979,
    10.685819092554));
#270 = CARTESIAN_POINT('',(1.204091327706,-14.60123608763,
    10.844270004642));
#271 = CARTESIAN_POINT('',(1.077838129816,-14.61110687073,
    10.990197282322));
#272 = CARTESIAN_POINT('',(0.788476993048,-14.62939903207,
    11.229577633024));
#273 = CARTESIAN_POINT('',(0.627097080552,-14.63812279601,
    11.330652943393));
#274 = CARTESIAN_POINT('',(0.443410483702,-14.64578597573,
    11.409431529037));
#275 = CARTESIAN_POINT('',(0.244020964151,-14.65088834244,
    11.458353422781));
#276 = CARTESIAN_POINT('',(3.757788011572E-02,-14.65236807247,
    11.473395631086));
#277 = CARTESIAN_POINT('',(-0.166719057134,-14.65033506424,
    11.454225835241));
#278 = CARTESIAN_POINT('',(-0.557874542113,-14.64070410534,
    11.35379417658));
#279 = CARTESIAN_POINT('',(-0.738055328141,-14.63316562315,
    11.273072757823));
#280 = CARTESIAN_POINT('',(-0.897799997134,-14.62399213067,
    11.168663865787));
#281 = CARTESIAN_POINT('',(-1.035402488047,-14.61437554872,
    11.046089467021));
#282 = CARTESIAN_POINT('',(-1.150119566363,-14.60529399755,
    10.910362441356));
#283 = CARTESIAN_POINT('',(-1.242031263005,-14.59742420561,
    10.766069462949));
#284 = CARTESIAN_POINT('',(-1.39632526182,-14.583550464,10.438178025));
#285 = CARTESIAN_POINT('',(-1.450429360072,-14.57811240724,
    10.249081221471));
#286 = CARTESIAN_POINT('',(-1.474750381817,-14.57551735761,
    10.054411693528));
#287 = CARTESIAN_POINT('',(-1.469116520557,-14.57610794404,
    9.857932209607));
#288 = CARTESIAN_POINT('',(-1.433187728764,-14.57989560089,
    9.663724693592));
#289 = CARTESIAN_POINT('',(-1.366849990545,-14.58641651392,
    9.476453971756));
#290 = CARTESIAN_POINT('',(-1.196828926666,-14.60121880483,
    9.167186804666));
#291 = CARTESIAN_POINT('',(-1.104031509212,-14.60885898742,9.03759914008
    ));
#292 = CARTESIAN_POINT('',(-0.991688645514,-14.61735676452,
    8.916314235334));
#293 = CARTESIAN_POINT('',(-0.859928248647,-14.62611944563,
    8.807198347129));
#294 = CARTESIAN_POINT('',(-0.709570156331,-14.63434021339,
    8.714357275986));
#295 = CARTESIAN_POINT('',(-0.542206014156,-14.64108989298,
    8.642182829209));
#296 = CARTESIAN_POINT('',(-0.181215031502,-14.64997814701,
    8.549496098377));
#297 = CARTESIAN_POINT('',(7.730330073836E-03,-14.65206482069,
    8.529476005895));
#298 = CARTESIAN_POINT('',(0.199428674002,-14.6511691496,8.538786589858)
  );
#299 = CARTESIAN_POINT('',(0.386220699853,-14.64714113113,8.577538676523
    ));
#300 = CARTESIAN_POINT('',(0.56081153453,-14.64071454456,8.642836223527)
  );
#301 = CARTESIAN_POINT('',(0.717314167333,-14.63305300872,8.728860681134
    ));
#302 = CARTESIAN_POINT('',(1.026954210286,-14.6150086119,8.953827340712)
  );
#303 = CARTESIAN_POINT('',(1.170718087249,-14.60418848275,9.10463516408)
  );
#304 = CARTESIAN_POINT('',(1.28376426756,-14.59426672867,9.271022946));
#305 = CARTESIAN_POINT('',(1.367300700274,-14.58629234307,9.447467442553
    ));
#306 = CARTESIAN_POINT('',(1.422439795424,-14.58080673463,9.629808617104
    ));
#307 = CARTESIAN_POINT('',(1.45,-14.57806571531,9.814924568912));
#308 = CARTESIAN_POINT('',(1.45,-14.57806571531,10.));
#309 = PCURVE('',#31,#310);
#310 = DEFINITIONAL_REPRESENTATION('',(#311),#356);
#311 = B_SPLINE_CURVE_WITH_KNOTS('',7,(#312,#313,#314,#315,#316,#317,
    #318,#319,#320,#321,#322,#323,#324,#325,#326,#327,#328,#329,#330,
    #331,#332,#333,#334,#335,#336,#337,#338,#339,#340,#341,#342,#343,
    #344,#345,#346,#347,#348,#349,#350,#351,#352,#353,#354,#355),
  .UNSPECIFIED.,.T.,.F.,(8,6,6,6,6,6,6,8),(0.,0.151854301737,
    0.286122135746,0.422739659678,0.587392362154,0.71372598103,
    0.838515002047,1.),.UNSPECIFIED.);
#312 = CARTESIAN_POINT('',(-4.811527405615,-10.));
#313 = CARTESIAN_POINT('',(-4.811527405615,-10.17384538586));
#314 = CARTESIAN_POINT('',(-4.809859423491,-10.34768556936));
#315 = CARTESIAN_POINT('',(-4.806523259713,-10.51920436495));
#316 = CARTESIAN_POINT('',(-4.801479265034,-10.68581909255));
#317 = CARTESIAN_POINT('',(-4.794667706729,-10.84427000464));
#318 = CARTESIAN_POINT('',(-4.786024401931,-10.99019728232));
#319 = CARTESIAN_POINT('',(-4.76623336193,-11.22957763302));
#320 = CARTESIAN_POINT('',(-4.755202061143,-11.33065294339));
#321 = CARTESIAN_POINT('',(-4.742654302346,-11.40943152903));
#322 = CARTESIAN_POINT('',(-4.729043377983,-11.45835342278));
#323 = CARTESIAN_POINT('',(-4.714954756309,-11.47339563108));
#324 = CARTESIAN_POINT('',(-4.701010364693,-11.45422583524));
#325 = CARTESIAN_POINT('',(-4.674302239582,-11.35379417658));
#326 = CARTESIAN_POINT('',(-4.661994273223,-11.27307275782));
#327 = CARTESIAN_POINT('',(-4.651074083045,-11.16866386578));
#328 = CARTESIAN_POINT('',(-4.641659281153,-11.04608946702));
#329 = CARTESIAN_POINT('',(-4.633804549877,-10.91036244135));
#330 = CARTESIAN_POINT('',(-4.627507811956,-10.76606946294));
#331 = CARTESIAN_POINT('',(-4.61693330754,-10.438178025));
#332 = CARTESIAN_POINT('',(-4.613221791687,-10.24908122147));
#333 = CARTESIAN_POINT('',(-4.611552146395,-10.05441169352));
#334 = CARTESIAN_POINT('',(-4.611938837528,-9.857932209607));
#335 = CARTESIAN_POINT('',(-4.61440497003,-9.663724693592));
#336 = CARTESIAN_POINT('',(-4.618954684552,-9.476453971756));
#337 = CARTESIAN_POINT('',(-4.630604118163,-9.167186804666));
#338 = CARTESIAN_POINT('',(-4.636959776707,-9.03759914008));
#339 = CARTESIAN_POINT('',(-4.644649846321,-8.916314235334));
#340 = CARTESIAN_POINT('',(-4.653662861142,-8.807198347129));
#341 = CARTESIAN_POINT('',(-4.663940036379,-8.714357275986));
#342 = CARTESIAN_POINT('',(-4.675372087817,-8.642182829209));
#343 = CARTESIAN_POINT('',(-4.700020578503,-8.549496098377));
#344 = CARTESIAN_POINT('',(-4.712917480801,-8.529476005895));
#345 = CARTESIAN_POINT('',(-4.72600017472,-8.538786589858));
#346 = CARTESIAN_POINT('',(-4.738750408637,-8.577538676523));
#347 = CARTESIAN_POINT('',(-4.750674545194,-8.642836223527));
#348 = CARTESIAN_POINT('',(-4.761369640657,-8.728860681134));
#349 = CARTESIAN_POINT('',(-4.782541338236,-8.953827340712));
#350 = CARTESIAN_POINT('',(-4.792380917062,-9.10463516408));
#351 = CARTESIAN_POINT('',(-4.800126507506,-9.271022946));
#352 = CARTESIAN_POINT('',(-4.805854547409,-9.447467442553));
#353 = CARTESIAN_POINT('',(-4.809636879989,-9.629808617104));
#354 = CARTESIAN_POINT('',(-4.811527405615,-9.814924568912));
#355 = CARTESIAN_POINT('',(-4.811527405615,-10.));
#356 = ( GEOMETRIC_REPRESENTATION_CONTEXT(2) 
PARAMETRIC_REPRESENTATION_CONTEXT() REPRESENTATION_CONTEXT('2D SPACE',''
  ) );
#357 = PCURVE('',#358,#363);
#358 = CYLINDRICAL_SURFACE('',#359,1.45);
#359 = AXIS2_PLACEMENT_3D('',#360,#361,#362);
#360 = CARTESIAN_POINT('',(0.,15.65,10.));
#361 = DIRECTION('',(-0.,1.,-0.));
#362 = DIRECTION('',(1.,0.,0.));
#363 = DEFINITIONAL_REPRESENTATION('',(#364),#409);
#364 = B_SPLINE_CURVE_WITH_KNOTS('',7,(#365,#366,#367,#368,#369,#370,
    #371,#372,#373,#374,#375,#376,#377,#378,#379,#380,#381,#382,#383,
    #384,#385,#386,#387,#388,#389,#390,#391,#392,#393,#394,#395,#396,
    #397,#398,#399,#400,#401,#402,#403,#404,#405,#406,#407,#408),
  .UNSPECIFIED.,.F.,.F.,(8,6,6,6,6,6,6,8),(0.,0.151854301737,
    0.286122135746,0.422739659678,0.587392362154,0.71372598103,
    0.838515002047,1.),.UNSPECIFIED.);
#365 = CARTESIAN_POINT('',(0.,-30.22806571531));
#366 = CARTESIAN_POINT('',(-0.119893369563,-30.22806571531));
#367 = CARTESIAN_POINT('',(-0.239782547321,-30.2304841834));
#368 = CARTESIAN_POINT('',(-0.360889022978,-30.23532216951));
#369 = CARTESIAN_POINT('',(-0.48423427266,-30.24237902979));
#370 = CARTESIAN_POINT('',(-0.610948599229,-30.25123608763));
#371 = CARTESIAN_POINT('',(-0.742188666967,-30.26110687073));
#372 = CARTESIAN_POINT('',(-1.001184091819,-30.27939903207));
#373 = CARTESIAN_POINT('',(-1.13137365738,-30.28812279601));
#374 = CARTESIAN_POINT('',(-1.26653935619,-30.29578597573));
#375 = CARTESIAN_POINT('',(-1.404697692888,-30.30088834244));
#376 = CARTESIAN_POINT('',(-1.544320484799,-30.30236807247));
#377 = CARTESIAN_POINT('',(-1.684075471841,-30.30033506424));
#378 = CARTESIAN_POINT('',(-1.962587853906,-30.29070410534));
#379 = CARTESIAN_POINT('',(-2.096791749808,-30.28316562315));
#380 = CARTESIAN_POINT('',(-2.225929043797,-30.27399213067));
#381 = CARTESIAN_POINT('',(-2.35064689236,-30.26437554872));
#382 = CARTESIAN_POINT('',(-2.471409294902,-30.25529399755));
#383 = CARTESIAN_POINT('',(-2.588439211135,-30.24742420561));
#384 = CARTESIAN_POINT('',(-2.838356613091,-30.233550464));
#385 = CARTESIAN_POINT('',(-2.972244188216,-30.22811240724));
#386 = CARTESIAN_POINT('',(-3.105022203686,-30.22551735761));
#387 = CARTESIAN_POINT('',(-3.237732190433,-30.22610794404));
#388 = CARTESIAN_POINT('',(-3.371307951686,-30.22989560089));
#389 = CARTESIAN_POINT('',(-3.506524634695,-30.23641651392));
#390 = CARTESIAN_POINT('',(-3.749918535825,-30.25121880483));
#391 = CARTESIAN_POINT('',(-3.859065812773,-30.25885898742));
#392 = CARTESIAN_POINT('',(-3.971618437045,-30.26735676452));
#393 = CARTESIAN_POINT('',(-4.087687569256,-30.27611944563));
#394 = CARTESIAN_POINT('',(-4.207577519276,-30.28434021339));
#395 = CARTESIAN_POINT('',(-4.331753832801,-30.29108989298));
#396 = CARTESIAN_POINT('',(-4.588788342974,-30.29997814701));
#397 = CARTESIAN_POINT('',(-4.718434724208,-30.30206482069));
#398 = CARTESIAN_POINT('',(-4.848296358789,-30.3011691496));
#399 = CARTESIAN_POINT('',(-4.977089639926,-30.29714113113));
#400 = CARTESIAN_POINT('',(-5.103455357541,-30.29071454456));
#401 = CARTESIAN_POINT('',(-5.225647101751,-30.28305300872));
#402 = CARTESIAN_POINT('',(-5.489603061506,-30.2650086119));
#403 = CARTESIAN_POINT('',(-5.630949177614,-30.25418848275));
#404 = CARTESIAN_POINT('',(-5.766854948425,-30.24426672867));
#405 = CARTESIAN_POINT('',(-5.898729358018,-30.23629234307));
#406 = CARTESIAN_POINT('',(-6.027881601041,-30.23080673463));
#407 = CARTESIAN_POINT('',(-6.155547078843,-30.22806571531));
#408 = CARTESIAN_POINT('',(-6.28318530718,-30.22806571531));
#409 = ( GEOMETRIC_REPRESENTATION_CONTEXT(2) 
PARAMETRIC_REPRESENTATION_CONTEXT() REPRESENTATION_CONTEXT('2D SPACE',''
  ) );
#410 = ADVANCED_FACE('',(#411,#414),#43,.F.);
#411 = FACE_BOUND('',#412,.F.);
#412 = EDGE_LOOP('',(#413));
#413 = ORIENTED_EDGE('',*,*,#21,.T.);
#414 = FACE_BOUND('',#415,.F.);
#415 = EDGE_LOOP('',(#416));
#416 = ORIENTED_EDGE('',*,*,#417,.T.);
#417 = EDGE_CURVE('',#418,#418,#420,.T.);
#418 = VERTEX_POINT('',#419);
#419 = CARTESIAN_POINT('',(10.825,0.,0.));
#420 = SURFACE_CURVE('',#421,(#426,#437),.PCURVE_S1.);
#421 = CIRCLE('',#422,10.825);
#422 = AXIS2_PLACEMENT_3D('',#423,#424,#425);
#423 = CARTESIAN_POINT('',(0.,0.,0.));
#424 = DIRECTION('',(0.,0.,-1.));
#425 = DIRECTION('',(1.,0.,0.));
#426 = PCURVE('',#43,#427);
#427 = DEFINITIONAL_REPRESENTATION('',(#428),#436);
#428 = ( BOUNDED_CURVE() B_SPLINE_CURVE(2,(#429,#430,#431,#432,#433,#434
,#435),.UNSPECIFIED.,.T.,.F.) B_SPLINE_CURVE_WITH_KNOTS((1,2,2,2,2,1),(
    -2.094395102393,0.,2.094395102393,4.188790204786,6.28318530718,
8.377580409573),.UNSPECIFIED.) CURVE() GEOMETRIC_REPRESENTATION_ITEM() 
RATIONAL_B_SPLINE_CURVE((1.,0.5,1.,0.5,1.,0.5,1.)) REPRESENTATION_ITEM(
  '') );
#429 = CARTESIAN_POINT('',(10.825,-8.954141205209E-16));
#430 = CARTESIAN_POINT('',(10.825,-18.74944999193));
#431 = CARTESIAN_POINT('',(-5.4125,-9.374724995967));
#432 = CARTESIAN_POINT('',(-21.65,-3.546774440675E-15));
#433 = CARTESIAN_POINT('',(-5.4125,9.374724995967));
#434 = CARTESIAN_POINT('',(10.825,18.749449991933));
#435 = CARTESIAN_POINT('',(10.825,-8.954141205209E-16));
#436 = ( GEOMETRIC_REPRESENTATION_CONTEXT(2) 
PARAMETRIC_REPRESENTATION_CONTEXT() REPRESENTATION_CONTEXT('2D SPACE',''
  ) );
#437 = PCURVE('',#438,#443);
#438 = CYLINDRICAL_SURFACE('',#439,10.825);
#439 = AXIS2_PLACEMENT_3D('',#440,#441,#442);
#440 = CARTESIAN_POINT('',(0.,0.,-1.));
#441 = DIRECTION('',(-0.,-0.,-1.));
#442 = DIRECTION('',(1.,0.,0.));
#443 = DEFINITIONAL_REPRESENTATION('',(#444),#448);
#444 = LINE('',#445,#446);
#445 = CARTESIAN_POINT('',(-6.28318530718,-1.));
#446 = VECTOR('',#447,1.);
#447 = DIRECTION('',(1.,-0.));
#448 = ( GEOMETRIC_REPRESENTATION_CONTEXT(2) 
PARAMETRIC_REPRESENTATION_CONTEXT() REPRESENTATION_CONTEXT('2D SPACE',''
  ) );
#449 = ADVANCED_FACE('',(#450),#93,.T.);
#450 = FACE_BOUND('',#451,.T.);
#451 = EDGE_LOOP('',(#452,#453,#473,#500));
#452 = ORIENTED_EDGE('',*,*,#78,.T.);
#453 = ORIENTED_EDGE('',*,*,#454,.T.);
#454 = EDGE_CURVE('',#56,#455,#457,.T.);
#455 = VERTEX_POINT('',#456);
#456 = CARTESIAN_POINT('',(8.,0.,34.));
#457 = SEAM_CURVE('',#458,(#461,#467),.PCURVE_S1.);
#458 = B_SPLINE_CURVE_WITH_KNOTS('',1,(#459,#460),.UNSPECIFIED.,.F.,.F.,
  (2,2),(0.,1.),.PIECEWISE_BEZIER_KNOTS.);
#459 = CARTESIAN_POINT('',(14.65,0.,20.));
#460 = CARTESIAN_POINT('',(8.,0.,34.));
#461 = PCURVE('',#93,#462);
#462 = DEFINITIONAL_REPRESENTATION('',(#463),#466);
#463 = B_SPLINE_CURVE_WITH_KNOTS('',1,(#464,#465),.UNSPECIFIED.,.F.,.F.,
  (2,2),(0.,1.),.PIECEWISE_BEZIER_KNOTS.);
#464 = CARTESIAN_POINT('',(-6.28318530718,0.));
#465 = CARTESIAN_POINT('',(-6.28318530718,-14.));
#466 = ( GEOMETRIC_REPRESENTATION_CONTEXT(2) 
PARAMETRIC_REPRESENTATION_CONTEXT() REPRESENTATION_CONTEXT('2D SPACE',''
  ) );
#467 = PCURVE('',#93,#468);
#468 = DEFINITIONAL_REPRESENTATION('',(#469),#472);
#469 = B_SPLINE_CURVE_WITH_KNOTS('',1,(#470,#471),.UNSPECIFIED.,.F.,.F.,
  (2,2),(0.,1.),.PIECEWISE_BEZIER_KNOTS.);
#470 = CARTESIAN_POINT('',(0.,0.));
#471 = CARTESIAN_POINT('',(0.,-14.));
#472 = ( GEOMETRIC_REPRESENTATION_CONTEXT(2) 
PARAMETRIC_REPRESENTATION_CONTEXT() REPRESENTATION_CONTEXT('2D SPACE',''
  ) );
#473 = ORIENTED_EDGE('',*,*,#474,.F.);
#474 = EDGE_CURVE('',#455,#455,#475,.T.);
#475 = SURFACE_CURVE('',#476,(#481,#488),.PCURVE_S1.);
#476 = CIRCLE('',#477,8.);
#477 = AXIS2_PLACEMENT_3D('',#478,#479,#480);
#478 = CARTESIAN_POINT('',(0.,0.,34.));
#479 = DIRECTION('',(0.,0.,1.));
#480 = DIRECTION('',(1.,0.,0.));
#481 = PCURVE('',#93,#482);
#482 = DEFINITIONAL_REPRESENTATION('',(#483),#487);
#483 = LINE('',#484,#485);
#484 = CARTESIAN_POINT('',(-0.,-14.));
#485 = VECTOR('',#486,1.);
#486 = DIRECTION('',(-1.,-0.));
#487 = ( GEOMETRIC_REPRESENTATION_CONTEXT(2) 
PARAMETRIC_REPRESENTATION_CONTEXT() REPRESENTATION_CONTEXT('2D SPACE',''
  ) );
#488 = PCURVE('',#489,#494);
#489 = PLANE('',#490);
#490 = AXIS2_PLACEMENT_3D('',#491,#492,#493);
#491 = CARTESIAN_POINT('',(0.,0.,34.));
#492 = DIRECTION('',(0.,0.,1.));
#493 = DIRECTION('',(1.,0.,0.));
#494 = DEFINITIONAL_REPRESENTATION('',(#495),#499);
#495 = CIRCLE('',#496,8.);
#496 = AXIS2_PLACEMENT_2D('',#497,#498);
#497 = CARTESIAN_POINT('',(0.,0.));
#498 = DIRECTION('',(1.,0.));
#499 = ( GEOMETRIC_REPRESENTATION_CONTEXT(2) 
PARAMETRIC_REPRESENTATION_CONTEXT() REPRESENTATION_CONTEXT('2D SPACE',''
  ) );
#500 = ORIENTED_EDGE('',*,*,#454,.F.);
#501 = ADVANCED_FACE('',(#502),#205,.F.);
#502 = FACE_BOUND('',#503,.T.);
#503 = EDGE_LOOP('',(#504,#505,#528,#672));
#504 = ORIENTED_EDGE('',*,*,#107,.F.);
#505 = ORIENTED_EDGE('',*,*,#506,.T.);
#506 = EDGE_CURVE('',#108,#507,#509,.T.);
#507 = VERTEX_POINT('',#508);
#508 = CARTESIAN_POINT('',(1.45,10.727447273233,10.));
#509 = SEAM_CURVE('',#510,(#514,#521),.PCURVE_S1.);
#510 = LINE('',#511,#512);
#511 = CARTESIAN_POINT('',(1.45,15.65,10.));
#512 = VECTOR('',#513,1.);
#513 = DIRECTION('',(0.,-1.,0.));
#514 = PCURVE('',#205,#515);
#515 = DEFINITIONAL_REPRESENTATION('',(#516),#520);
#516 = LINE('',#517,#518);
#517 = CARTESIAN_POINT('',(-6.28318530718,0.));
#518 = VECTOR('',#519,1.);
#519 = DIRECTION('',(-0.,-1.));
#520 = ( GEOMETRIC_REPRESENTATION_CONTEXT(2) 
PARAMETRIC_REPRESENTATION_CONTEXT() REPRESENTATION_CONTEXT('2D SPACE',''
  ) );
#521 = PCURVE('',#205,#522);
#522 = DEFINITIONAL_REPRESENTATION('',(#523),#527);
#523 = LINE('',#524,#525);
#524 = CARTESIAN_POINT('',(-0.,0.));
#525 = VECTOR('',#526,1.);
#526 = DIRECTION('',(-0.,-1.));
#527 = ( GEOMETRIC_REPRESENTATION_CONTEXT(2) 
PARAMETRIC_REPRESENTATION_CONTEXT() REPRESENTATION_CONTEXT('2D SPACE',''
  ) );
#528 = ORIENTED_EDGE('',*,*,#529,.T.);
#529 = EDGE_CURVE('',#507,#507,#530,.T.);
#530 = SURFACE_CURVE('',#531,(#576,#624),.PCURVE_S1.);
#531 = B_SPLINE_CURVE_WITH_KNOTS('',7,(#532,#533,#534,#535,#536,#537,
    #538,#539,#540,#541,#542,#543,#544,#545,#546,#547,#548,#549,#550,
    #551,#552,#553,#554,#555,#556,#557,#558,#559,#560,#561,#562,#563,
    #564,#565,#566,#567,#568,#569,#570,#571,#572,#573,#574,#575),
  .UNSPECIFIED.,.T.,.F.,(8,6,6,6,6,6,6,8),(0.,0.15181995641,
    0.286133339353,0.422747190168,0.587428874745,0.713761103187,
    0.838574735696,1.),.UNSPECIFIED.);
#532 = CARTESIAN_POINT('',(1.45,10.727447273233,10.));
#533 = CARTESIAN_POINT('',(1.45,10.727447273233,10.173978120624));
#534 = CARTESIAN_POINT('',(1.425646870454,10.730738886315,10.34794083782
    ));
#535 = CARTESIAN_POINT('',(1.37694306155,10.737322739884,10.519534326291
    ));
#536 = CARTESIAN_POINT('',(1.303314754025,10.746918431895,
    10.686150790451));
#537 = CARTESIAN_POINT('',(1.203883172585,10.7589430866,10.84452813267)
  );
#538 = CARTESIAN_POINT('',(1.077678905006,10.772322957947,10.99032900454
    ));
#539 = CARTESIAN_POINT('',(0.788541063971,10.797100731058,
    11.229524628947));
#540 = CARTESIAN_POINT('',(0.627181278547,10.808920206522,
    11.330614002806));
#541 = CARTESIAN_POINT('',(0.443494148287,10.81929679025,11.409406698385
    ));
#542 = CARTESIAN_POINT('',(0.244107158152,10.82619890649,11.458338176762
    ));
#543 = CARTESIAN_POINT('',(3.765945518354E-02,10.828204931401,
    11.473398562824));
#544 = CARTESIAN_POINT('',(-0.166666526699,10.825456081527,
    11.454239322765));
#545 = CARTESIAN_POINT('',(-0.55785576965,10.812417623796,11.35379899653
    ));
#546 = CARTESIAN_POINT('',(-0.737987664,10.802213150417,11.273096698921)
  );
#547 = CARTESIAN_POINT('',(-0.897684220513,10.789792124718,
    11.168732618306));
#548 = CARTESIAN_POINT('',(-1.035265928526,10.776759236039,
    11.046212968526));
#549 = CARTESIAN_POINT('',(-1.150002193714,10.764437582831,
    10.910520737964));
#550 = CARTESIAN_POINT('',(-1.241968812948,10.753748920367,
    10.766202176077));
#551 = CARTESIAN_POINT('',(-1.396417653172,10.734890565572,
    10.437981683381));
#552 = CARTESIAN_POINT('',(-1.450462304072,10.727506399544,
    10.248848937056));
#553 = CARTESIAN_POINT('',(-1.474715063126,10.723988330974,
    10.054286803325));
#554 = CARTESIAN_POINT('',(-1.46907628899,10.724792054593,9.857976733734
    ));
#555 = CARTESIAN_POINT('',(-1.433213968187,10.729931182651,
    9.663895894953));
#556 = CARTESIAN_POINT('',(-1.366939231486,10.738785048695,
    9.476616300426));
#557 = CARTESIAN_POINT('',(-1.19677427029,10.758898150837,9.167087385086
    ));
#558 = CARTESIAN_POINT('',(-1.103936520473,10.769270813568,
    9.037484439949));
#559 = CARTESIAN_POINT('',(-0.99158519323,10.780796851376,8.916229429189
    ));
#560 = CARTESIAN_POINT('',(-0.859848109263,10.792670577654,8.80715597249
    ));
#561 = CARTESIAN_POINT('',(-0.709531629781,10.803801844295,
    8.714346511156));
#562 = CARTESIAN_POINT('',(-0.542203326646,10.812939324534,
    8.642182139174));
#563 = CARTESIAN_POINT('',(-0.181180332738,10.82497233191,8.549487189249
    ));
#564 = CARTESIAN_POINT('',(7.792433620953E-03,10.827794905979,
    8.529471086764));
#565 = CARTESIAN_POINT('',(0.199504584528,10.826580152378,8.538794739737
    ));
#566 = CARTESIAN_POINT('',(0.386304057894,10.821130333446,8.577558385052
    ));
#567 = CARTESIAN_POINT('',(0.560898311849,10.812429084014,8.642871896128
    ));
#568 = CARTESIAN_POINT('',(0.717380810333,10.802050889259,8.728909100107
    ));
#569 = CARTESIAN_POINT('',(1.026768980832,10.777615865848,8.953692763637
    ));
#570 = CARTESIAN_POINT('',(1.170472036447,10.762954228143,9.104358152254
    ));
#571 = CARTESIAN_POINT('',(1.283551166863,10.749487362979,9.270656291772
    ));
#572 = CARTESIAN_POINT('',(1.36717034936,10.738644380781,9.447093382121)
  );
#573 = CARTESIAN_POINT('',(1.422393033819,10.73117852361,9.62951326184)
  );
#574 = CARTESIAN_POINT('',(1.45,10.727447273233,9.814767639658));
#575 = CARTESIAN_POINT('',(1.45,10.727447273233,10.));
#576 = PCURVE('',#205,#577);
#577 = DEFINITIONAL_REPRESENTATION('',(#578),#623);
#578 = B_SPLINE_CURVE_WITH_KNOTS('',7,(#579,#580,#581,#582,#583,#584,
    #585,#586,#587,#588,#589,#590,#591,#592,#593,#594,#595,#596,#597,
    #598,#599,#600,#601,#602,#603,#604,#605,#606,#607,#608,#609,#610,
    #611,#612,#613,#614,#615,#616,#617,#618,#619,#620,#621,#622),
  .UNSPECIFIED.,.F.,.F.,(8,6,6,6,6,6,6,8),(0.,0.15181995641,
    0.286133339353,0.422747190168,0.587428874745,0.713761103187,
    0.838574735696,1.),.UNSPECIFIED.);
#579 = CARTESIAN_POINT('',(0.,-4.922552726767));
#580 = CARTESIAN_POINT('',(-0.119984910775,-4.922552726767));
#581 = CARTESIAN_POINT('',(-0.239958610751,-4.919261113685));
#582 = CARTESIAN_POINT('',(-0.361122976899,-4.912677260116));
#583 = CARTESIAN_POINT('',(-0.484487438493,-4.903081568105));
#584 = CARTESIAN_POINT('',(-0.61117269321,-4.8910569134));
#585 = CARTESIAN_POINT('',(-0.74233118264,-4.877677042053));
#586 = CARTESIAN_POINT('',(-1.001126744533,-4.852899268942));
#587 = CARTESIAN_POINT('',(-1.131311841072,-4.841079793478));
#588 = CARTESIAN_POINT('',(-1.266479613816,-4.83070320975));
#589 = CARTESIAN_POINT('',(-1.404638993018,-4.82380109351));
#590 = CARTESIAN_POINT('',(-1.544265549468,-4.821795068599));
#591 = CARTESIAN_POINT('',(-1.684038068872,-4.824543918473));
#592 = CARTESIAN_POINT('',(-1.962574487448,-4.837582376204));
#593 = CARTESIAN_POINT('',(-2.096742456624,-4.847786849583));
#594 = CARTESIAN_POINT('',(-2.225838562957,-4.860207875282));
#595 = CARTESIAN_POINT('',(-2.35052331174,-4.873240763961));
#596 = CARTESIAN_POINT('',(-2.471276059868,-4.885562417169));
#597 = CARTESIAN_POINT('',(-2.588338057777,-4.896251079633));
#598 = CARTESIAN_POINT('',(-2.838506263804,-4.915109434428));
#599 = CARTESIAN_POINT('',(-2.972398836353,-4.922493600456));
#600 = CARTESIAN_POINT('',(-3.105103303526,-4.926011669026));
#601 = CARTESIAN_POINT('',(-3.237706644314,-4.925207945407));
#602 = CARTESIAN_POINT('',(-3.371195805413,-4.920068817349));
#603 = CARTESIAN_POINT('',(-3.506396881696,-4.911214951305));
#604 = CARTESIAN_POINT('',(-3.74999677924,-4.891101849163));
#605 = CARTESIAN_POINT('',(-3.859166682664,-4.880729186432));
#606 = CARTESIAN_POINT('',(-3.971708379986,-4.869203148624));
#607 = CARTESIAN_POINT('',(-4.087748569082,-4.857329422346));
#608 = CARTESIAN_POINT('',(-4.20760509219,-4.846198155705));
#609 = CARTESIAN_POINT('',(-4.331755746375,-4.837060675466));
#610 = CARTESIAN_POINT('',(-4.588813049352,-4.82502766809));
#611 = CARTESIAN_POINT('',(-4.718477018894,-4.822205094021));
#612 = CARTESIAN_POINT('',(-4.848347786025,-4.823419847622));
#613 = CARTESIAN_POINT('',(-4.977147977871,-4.828869666554));
#614 = CARTESIAN_POINT('',(-5.103518202093,-4.837570915986));
#615 = CARTESIAN_POINT('',(-5.225703912287,-4.847949110741));
#616 = CARTESIAN_POINT('',(-5.489445160681,-4.872384134152));
#617 = CARTESIAN_POINT('',(-5.630699580139,-4.887045771857));
#618 = CARTESIAN_POINT('',(-5.766570404877,-4.900512637021));
#619 = CARTESIAN_POINT('',(-5.898462813862,-4.911355619219));
#620 = CARTESIAN_POINT('',(-6.027677887952,-4.91882147639));
#621 = CARTESIAN_POINT('',(-6.155438851771,-4.922552726767));
#622 = CARTESIAN_POINT('',(-6.28318530718,-4.922552726767));
#623 = ( GEOMETRIC_REPRESENTATION_CONTEXT(2) 
PARAMETRIC_REPRESENTATION_CONTEXT() REPRESENTATION_CONTEXT('2D SPACE',''
  ) );
#624 = PCURVE('',#438,#625);
#625 = DEFINITIONAL_REPRESENTATION('',(#626),#671);
#626 = B_SPLINE_CURVE_WITH_KNOTS('',7,(#627,#628,#629,#630,#631,#632,
    #633,#634,#635,#636,#637,#638,#639,#640,#641,#642,#643,#644,#645,
    #646,#647,#648,#649,#650,#651,#652,#653,#654,#655,#656,#657,#658,
    #659,#660,#661,#662,#663,#664,#665,#666,#667,#668,#669,#670),
  .UNSPECIFIED.,.T.,.F.,(8,6,6,6,6,6,6,8),(0.,0.15181995641,
    0.286133339353,0.422747190168,0.587428874745,0.713761103187,
    0.838574735696,1.),.UNSPECIFIED.);
#627 = CARTESIAN_POINT('',(-1.43644330463,-11.));
#628 = CARTESIAN_POINT('',(-1.43644330463,-11.17397812062));
#629 = CARTESIAN_POINT('',(-1.438713474574,-11.34794083782));
#630 = CARTESIAN_POINT('',(-1.443253587862,-11.51953432629));
#631 = CARTESIAN_POINT('',(-1.450112734003,-11.68615079045));
#632 = CARTESIAN_POINT('',(-1.459364116427,-11.84452813267));
#633 = CARTESIAN_POINT('',(-1.471085666815,-11.99032900454));
#634 = CARTESIAN_POINT('',(-1.497893756347,-12.22952462894));
#635 = CARTESIAN_POINT('',(-1.512838725078,-12.3306140028));
#636 = CARTESIAN_POINT('',(-1.529830869345,-12.40940669838));
#637 = CARTESIAN_POINT('',(-1.548251765839,-12.45833817676));
#638 = CARTESIAN_POINT('',(-1.567315584055,-12.47339856282));
#639 = CARTESIAN_POINT('',(-1.586188988237,-12.45423932276));
#640 = CARTESIAN_POINT('',(-1.622346629857,-12.35379899653));
#641 = CARTESIAN_POINT('',(-1.639009149759,-12.27309669892));
#642 = CARTESIAN_POINT('',(-1.653801691486,-12.1687326183));
#643 = CARTESIAN_POINT('',(-1.666566284697,-12.04621296852));
#644 = CARTESIAN_POINT('',(-1.677225709675,-11.91052073796));
#645 = CARTESIAN_POINT('',(-1.685778522622,-11.76620217607));
#646 = CARTESIAN_POINT('',(-1.700152277134,-11.43798168338));
#647 = CARTESIAN_POINT('',(-1.705190725695,-11.24884893705));
#648 = CARTESIAN_POINT('',(-1.707454826057,-11.05428680332));
#649 = CARTESIAN_POINT('',(-1.706928608443,-10.85797673373));
#650 = CARTESIAN_POINT('',(-1.703581683946,-10.66389589495));
#651 = CARTESIAN_POINT('',(-1.697405625261,-10.47661630042));
#652 = CARTESIAN_POINT('',(-1.681576572212,-10.16708738508));
#653 = CARTESIAN_POINT('',(-1.672947144748,-10.03748443994));
#654 = CARTESIAN_POINT('',(-1.662514526084,-9.916229429189));
#655 = CARTESIAN_POINT('',(-1.65029732919,-9.80715597249));
#656 = CARTESIAN_POINT('',(-1.636376990522,-9.714346511156));
#657 = CARTESIAN_POINT('',(-1.620899873754,-9.642182139174));
#658 = CARTESIAN_POINT('',(-1.587530500067,-9.549487189249));
#659 = CARTESIAN_POINT('',(-1.570074411375,-9.529471086764));
#660 = CARTESIAN_POINT('',(-1.552370515833,-9.538794739737));
#661 = CARTESIAN_POINT('',(-1.535114399469,-9.577558385052));
#662 = CARTESIAN_POINT('',(-1.518969063115,-9.642871896128));
#663 = CARTESIAN_POINT('',(-1.504482818552,-9.728909100107));
#664 = CARTESIAN_POINT('',(-1.475812925563,-9.953692763637));
#665 = CARTESIAN_POINT('',(-1.462472393572,-10.10435815225));
#666 = CARTESIAN_POINT('',(-1.451953825257,-10.27065629177));
#667 = CARTESIAN_POINT('',(-1.444164586007,-10.44709338212));
#668 = CARTESIAN_POINT('',(-1.439016794107,-10.62951326184));
#669 = CARTESIAN_POINT('',(-1.43644330463,-10.81476763965));
#670 = CARTESIAN_POINT('',(-1.43644330463,-11.));
#671 = ( GEOMETRIC_REPRESENTATION_CONTEXT(2) 
PARAMETRIC_REPRESENTATION_CONTEXT() REPRESENTATION_CONTEXT('2D SPACE',''
  ) );
#672 = ORIENTED_EDGE('',*,*,#506,.F.);
#673 = ADVANCED_FACE('',(#674),#358,.F.);
#674 = FACE_BOUND('',#675,.T.);
#675 = EDGE_LOOP('',(#676,#822,#843,#844));
#676 = ORIENTED_EDGE('',*,*,#677,.F.);
#677 = EDGE_CURVE('',#678,#678,#680,.T.);
#678 = VERTEX_POINT('',#679);
#679 = CARTESIAN_POINT('',(1.45,-10.72744727323,10.));
#680 = SURFACE_CURVE('',#681,(#726,#774),.PCURVE_S1.);
#681 = B_SPLINE_CURVE_WITH_KNOTS('',7,(#682,#683,#684,#685,#686,#687,
    #688,#689,#690,#691,#692,#693,#694,#695,#696,#697,#698,#699,#700,
    #701,#702,#703,#704,#705,#706,#707,#708,#709,#710,#711,#712,#713,
    #714,#715,#716,#717,#718,#719,#720,#721,#722,#723,#724,#725),
  .UNSPECIFIED.,.T.,.F.,(8,6,6,6,6,6,6,8),(0.,0.151819956396,
    0.286133339327,0.422747190139,0.587428874722,0.713761103172,
    0.838574735687,1.),.UNSPECIFIED.);
#682 = CARTESIAN_POINT('',(1.45,-10.72744727323,10.));
#683 = CARTESIAN_POINT('',(1.45,-10.72744727323,10.173978120624));
#684 = CARTESIAN_POINT('',(1.425646870454,-10.73073888631,10.34794083782
    ));
#685 = CARTESIAN_POINT('',(1.37694306155,-10.73732273988,10.519534326291
    ));
#686 = CARTESIAN_POINT('',(1.303314754026,-10.74691843189,
    10.686150790451));
#687 = CARTESIAN_POINT('',(1.203883172585,-10.7589430866,10.844528132671
    ));
#688 = CARTESIAN_POINT('',(1.077678905006,-10.77232295794,10.99032900454
    ));
#689 = CARTESIAN_POINT('',(0.788541063971,-10.79710073105,
    11.229524628947));
#690 = CARTESIAN_POINT('',(0.627181278547,-10.80892020652,
    11.330614002806));
#691 = CARTESIAN_POINT('',(0.443494148287,-10.81929679025,
    11.409406698385));
#692 = CARTESIAN_POINT('',(0.244107158152,-10.82619890649,
    11.458338176762));
#693 = CARTESIAN_POINT('',(3.765945518367E-02,-10.8282049314,
    11.473398562824));
#694 = CARTESIAN_POINT('',(-0.166666526699,-10.82545608152,
    11.454239322765));
#695 = CARTESIAN_POINT('',(-0.557855769662,-10.81241762379,
    11.353798996527));
#696 = CARTESIAN_POINT('',(-0.737987664001,-10.80221315041,
    11.273096698917));
#697 = CARTESIAN_POINT('',(-0.897684220504,-10.78979212471,
    11.16873261831));
#698 = CARTESIAN_POINT('',(-1.035265928519,-10.77675923604,
    11.046212968535));
#699 = CARTESIAN_POINT('',(-1.150002193717,-10.76443758283,
    10.910520737966));
#700 = CARTESIAN_POINT('',(-1.241968812954,-10.75374892036,
    10.766202176064));
#701 = CARTESIAN_POINT('',(-1.396417653171,-10.73489056557,
    10.437981683384));
#702 = CARTESIAN_POINT('',(-1.450462304071,-10.72750639954,
    10.248848937059));
#703 = CARTESIAN_POINT('',(-1.474715063126,-10.72398833097,
    10.054286803326));
#704 = CARTESIAN_POINT('',(-1.46907628899,-10.72479205459,9.857976733733
    ));
#705 = CARTESIAN_POINT('',(-1.433213968187,-10.72993118265,9.66389589495
    ));
#706 = CARTESIAN_POINT('',(-1.366939231485,-10.73878504869,
    9.476616300423));
#707 = CARTESIAN_POINT('',(-1.19677427029,-10.75889815083,9.167087385086
    ));
#708 = CARTESIAN_POINT('',(-1.103936520473,-10.76927081356,
    9.037484439949));
#709 = CARTESIAN_POINT('',(-0.99158519323,-10.78079685137,8.916229429189
    ));
#710 = CARTESIAN_POINT('',(-0.859848109263,-10.79267057765,8.80715597249
    ));
#711 = CARTESIAN_POINT('',(-0.709531629781,-10.80380184429,
    8.714346511156));
#712 = CARTESIAN_POINT('',(-0.542203326646,-10.81293932453,
    8.642182139174));
#713 = CARTESIAN_POINT('',(-0.181180332738,-10.82497233191,
    8.549487189249));
#714 = CARTESIAN_POINT('',(7.792433621208E-03,-10.82779490597,
    8.529471086764));
#715 = CARTESIAN_POINT('',(0.199504584527,-10.82658015237,8.538794739737
    ));
#716 = CARTESIAN_POINT('',(0.386304057895,-10.82113033344,8.577558385052
    ));
#717 = CARTESIAN_POINT('',(0.560898311849,-10.81242908401,8.642871896129
    ));
#718 = CARTESIAN_POINT('',(0.717380810333,-10.80205088925,8.728909100107
    ));
#719 = CARTESIAN_POINT('',(1.026768980832,-10.77761586584,8.953692763637
    ));
#720 = CARTESIAN_POINT('',(1.170472036447,-10.76295422814,9.104358152254
    ));
#721 = CARTESIAN_POINT('',(1.283551166863,-10.74948736297,9.270656291772
    ));
#722 = CARTESIAN_POINT('',(1.36717034936,-10.73864438078,9.447093382121)
  );
#723 = CARTESIAN_POINT('',(1.422393033819,-10.73117852361,9.629513261839
    ));
#724 = CARTESIAN_POINT('',(1.45,-10.72744727323,9.814767639658));
#725 = CARTESIAN_POINT('',(1.45,-10.72744727323,10.));
#726 = PCURVE('',#358,#727);
#727 = DEFINITIONAL_REPRESENTATION('',(#728),#773);
#728 = B_SPLINE_CURVE_WITH_KNOTS('',7,(#729,#730,#731,#732,#733,#734,
    #735,#736,#737,#738,#739,#740,#741,#742,#743,#744,#745,#746,#747,
    #748,#749,#750,#751,#752,#753,#754,#755,#756,#757,#758,#759,#760,
    #761,#762,#763,#764,#765,#766,#767,#768,#769,#770,#771,#772),
  .UNSPECIFIED.,.F.,.F.,(8,6,6,6,6,6,6,8),(0.,0.151819956396,
    0.286133339327,0.422747190139,0.587428874722,0.713761103172,
    0.838574735687,1.),.UNSPECIFIED.);
#729 = CARTESIAN_POINT('',(0.,-26.37744727323));
#730 = CARTESIAN_POINT('',(-0.119984910775,-26.37744727323));
#731 = CARTESIAN_POINT('',(-0.239958610751,-26.38073888631));
#732 = CARTESIAN_POINT('',(-0.361122976899,-26.38732273988));
#733 = CARTESIAN_POINT('',(-0.484487438493,-26.39691843189));
#734 = CARTESIAN_POINT('',(-0.61117269321,-26.4089430866));
#735 = CARTESIAN_POINT('',(-0.74233118264,-26.42232295794));
#736 = CARTESIAN_POINT('',(-1.001126744533,-26.44710073105));
#737 = CARTESIAN_POINT('',(-1.131311841072,-26.45892020652));
#738 = CARTESIAN_POINT('',(-1.266479613816,-26.46929679025));
#739 = CARTESIAN_POINT('',(-1.404638993018,-26.47619890649));
#740 = CARTESIAN_POINT('',(-1.544265549468,-26.4782049314));
#741 = CARTESIAN_POINT('',(-1.684038068872,-26.47545608152));
#742 = CARTESIAN_POINT('',(-1.962574487457,-26.46241762379));
#743 = CARTESIAN_POINT('',(-2.096742456626,-26.45221315041));
#744 = CARTESIAN_POINT('',(-2.225838562951,-26.43979212471));
#745 = CARTESIAN_POINT('',(-2.350523311733,-26.42675923604));
#746 = CARTESIAN_POINT('',(-2.471276059868,-26.41443758283));
#747 = CARTESIAN_POINT('',(-2.588338057787,-26.40374892036));
#748 = CARTESIAN_POINT('',(-2.838506263801,-26.38489056557));
#749 = CARTESIAN_POINT('',(-2.972398836351,-26.37750639954));
#750 = CARTESIAN_POINT('',(-3.105103303525,-26.37398833097));
#751 = CARTESIAN_POINT('',(-3.237706644315,-26.37479205459));
#752 = CARTESIAN_POINT('',(-3.371195805415,-26.37993118265));
#753 = CARTESIAN_POINT('',(-3.506396881698,-26.38878504869));
#754 = CARTESIAN_POINT('',(-3.74999677924,-26.40889815083));
#755 = CARTESIAN_POINT('',(-3.859166682664,-26.41927081356));
#756 = CARTESIAN_POINT('',(-3.971708379986,-26.43079685137));
#757 = CARTESIAN_POINT('',(-4.087748569082,-26.44267057765));
#758 = CARTESIAN_POINT('',(-4.20760509219,-26.45380184429));
#759 = CARTESIAN_POINT('',(-4.331755746375,-26.46293932453));
#760 = CARTESIAN_POINT('',(-4.588813049352,-26.47497233191));
#761 = CARTESIAN_POINT('',(-4.718477018894,-26.47779490597));
#762 = CARTESIAN_POINT('',(-4.848347786025,-26.47658015237));
#763 = CARTESIAN_POINT('',(-4.977147977871,-26.47113033344));
#764 = CARTESIAN_POINT('',(-5.103518202093,-26.46242908401));
#765 = CARTESIAN_POINT('',(-5.225703912287,-26.45205088925));
#766 = CARTESIAN_POINT('',(-5.489445160681,-26.42761586584));
#767 = CARTESIAN_POINT('',(-5.63069958014,-26.41295422814));
#768 = CARTESIAN_POINT('',(-5.766570404877,-26.39948736297));
#769 = CARTESIAN_POINT('',(-5.898462813862,-26.38864438078));
#770 = CARTESIAN_POINT('',(-6.027677887951,-26.38117852361));
#771 = CARTESIAN_POINT('',(-6.155438851771,-26.37744727323));
#772 = CARTESIAN_POINT('',(-6.28318530718,-26.37744727323));
#773 = ( GEOMETRIC_REPRESENTATION_CONTEXT(2) 
PARAMETRIC_REPRESENTATION_CONTEXT() REPRESENTATION_CONTEXT('2D SPACE',''
  ) );
#774 = PCURVE('',#438,#775);
#775 = DEFINITIONAL_REPRESENTATION('',(#776),#821);
#776 = B_SPLINE_CURVE_WITH_KNOTS('',7,(#777,#778,#779,#780,#781,#782,
    #783,#784,#785,#786,#787,#788,#789,#790,#791,#792,#793,#794,#795,
    #796,#797,#798,#799,#800,#801,#802,#803,#804,#805,#806,#807,#808,
    #809,#810,#811,#812,#813,#814,#815,#816,#817,#818,#819,#820),
  .UNSPECIFIED.,.T.,.F.,(8,6,6,6,6,6,6,8),(0.,0.151819956396,
    0.286133339327,0.422747190139,0.587428874722,0.713761103172,
    0.838574735687,1.),.UNSPECIFIED.);
#777 = CARTESIAN_POINT('',(-4.84674200255,-11.));
#778 = CARTESIAN_POINT('',(-4.84674200255,-11.17397812062));
#779 = CARTESIAN_POINT('',(-4.844471832606,-11.34794083782));
#780 = CARTESIAN_POINT('',(-4.839931719318,-11.51953432629));
#781 = CARTESIAN_POINT('',(-4.833072573176,-11.68615079045));
#782 = CARTESIAN_POINT('',(-4.823821190753,-11.84452813267));
#783 = CARTESIAN_POINT('',(-4.812099640364,-11.99032900454));
#784 = CARTESIAN_POINT('',(-4.785291550832,-12.22952462894));
#785 = CARTESIAN_POINT('',(-4.770346582102,-12.3306140028));
#786 = CARTESIAN_POINT('',(-4.753354437834,-12.40940669838));
#787 = CARTESIAN_POINT('',(-4.73493354134,-12.45833817676));
#788 = CARTESIAN_POINT('',(-4.715869723125,-12.47339856282));
#789 = CARTESIAN_POINT('',(-4.696996318943,-12.45423932276));
#790 = CARTESIAN_POINT('',(-4.660838677321,-12.35379899652));
#791 = CARTESIAN_POINT('',(-4.644176157421,-12.27309669891));
#792 = CARTESIAN_POINT('',(-4.629383615695,-12.16873261831));
#793 = CARTESIAN_POINT('',(-4.616619022483,-12.04621296853));
#794 = CARTESIAN_POINT('',(-4.605959597504,-11.91052073796));
#795 = CARTESIAN_POINT('',(-4.597406784557,-11.76620217606));
#796 = CARTESIAN_POINT('',(-4.583033030046,-11.43798168338));
#797 = CARTESIAN_POINT('',(-4.577994581485,-11.24884893705));
#798 = CARTESIAN_POINT('',(-4.575730481123,-11.05428680332));
#799 = CARTESIAN_POINT('',(-4.576256698736,-10.85797673373));
#800 = CARTESIAN_POINT('',(-4.579603623234,-10.66389589495));
#801 = CARTESIAN_POINT('',(-4.585779681918,-10.47661630042));
#802 = CARTESIAN_POINT('',(-4.601608734968,-10.16708738508));
#803 = CARTESIAN_POINT('',(-4.610238162432,-10.03748443994));
#804 = CARTESIAN_POINT('',(-4.620670781096,-9.916229429189));
#805 = CARTESIAN_POINT('',(-4.632887977989,-9.80715597249));
#806 = CARTESIAN_POINT('',(-4.646808316658,-9.714346511157));
#807 = CARTESIAN_POINT('',(-4.662285433425,-9.642182139174));
#808 = CARTESIAN_POINT('',(-4.695654807113,-9.549487189249));
#809 = CARTESIAN_POINT('',(-4.713110895805,-9.529471086764));
#810 = CARTESIAN_POINT('',(-4.730814791347,-9.538794739737));
#811 = CARTESIAN_POINT('',(-4.748070907711,-9.577558385052));
#812 = CARTESIAN_POINT('',(-4.764216244064,-9.642871896129));
#813 = CARTESIAN_POINT('',(-4.778702488627,-9.728909100107));
#814 = CARTESIAN_POINT('',(-4.807372381616,-9.953692763637));
#815 = CARTESIAN_POINT('',(-4.820712913608,-10.10435815225));
#816 = CARTESIAN_POINT('',(-4.831231481923,-10.27065629177));
#817 = CARTESIAN_POINT('',(-4.839020721173,-10.44709338212));
#818 = CARTESIAN_POINT('',(-4.844168513073,-10.62951326183));
#819 = CARTESIAN_POINT('',(-4.84674200255,-10.81476763965));
#820 = CARTESIAN_POINT('',(-4.84674200255,-11.));
#821 = ( GEOMETRIC_REPRESENTATION_CONTEXT(2) 
PARAMETRIC_REPRESENTATION_CONTEXT() REPRESENTATION_CONTEXT('2D SPACE',''
  ) );
#822 = ORIENTED_EDGE('',*,*,#823,.T.);
#823 = EDGE_CURVE('',#678,#261,#824,.T.);
#824 = SEAM_CURVE('',#825,(#829,#836),.PCURVE_S1.);
#825 = LINE('',#826,#827);
#826 = CARTESIAN_POINT('',(1.45,15.65,10.));
#827 = VECTOR('',#828,1.);
#828 = DIRECTION('',(0.,-1.,0.));
#829 = PCURVE('',#358,#830);
#830 = DEFINITIONAL_REPRESENTATION('',(#831),#835);
#831 = LINE('',#832,#833);
#832 = CARTESIAN_POINT('',(-6.28318530718,0.));
#833 = VECTOR('',#834,1.);
#834 = DIRECTION('',(-0.,-1.));
#835 = ( GEOMETRIC_REPRESENTATION_CONTEXT(2) 
PARAMETRIC_REPRESENTATION_CONTEXT() REPRESENTATION_CONTEXT('2D SPACE',''
  ) );
#836 = PCURVE('',#358,#837);
#837 = DEFINITIONAL_REPRESENTATION('',(#838),#842);
#838 = LINE('',#839,#840);
#839 = CARTESIAN_POINT('',(-0.,0.));
#840 = VECTOR('',#841,1.);
#841 = DIRECTION('',(-0.,-1.));
#842 = ( GEOMETRIC_REPRESENTATION_CONTEXT(2) 
PARAMETRIC_REPRESENTATION_CONTEXT() REPRESENTATION_CONTEXT('2D SPACE',''
  ) );
#843 = ORIENTED_EDGE('',*,*,#260,.T.);
#844 = ORIENTED_EDGE('',*,*,#823,.F.);
#845 = ADVANCED_FACE('',(#846,#900,#903),#438,.F.);
#846 = FACE_BOUND('',#847,.T.);
#847 = EDGE_LOOP('',(#848,#871,#872,#873));
#848 = ORIENTED_EDGE('',*,*,#849,.F.);
#849 = EDGE_CURVE('',#418,#850,#852,.T.);
#850 = VERTEX_POINT('',#851);
#851 = CARTESIAN_POINT('',(10.825,0.,15.));
#852 = SEAM_CURVE('',#853,(#857,#864),.PCURVE_S1.);
#853 = LINE('',#854,#855);
#854 = CARTESIAN_POINT('',(10.825,0.,-1.));
#855 = VECTOR('',#856,1.);
#856 = DIRECTION('',(0.,0.,1.));
#857 = PCURVE('',#438,#858);
#858 = DEFINITIONAL_REPRESENTATION('',(#859),#863);
#859 = LINE('',#860,#861);
#860 = CARTESIAN_POINT('',(-6.28318530718,0.));
#861 = VECTOR('',#862,1.);
#862 = DIRECTION('',(-0.,-1.));
#863 = ( GEOMETRIC_REPRESENTATION_CONTEXT(2) 
PARAMETRIC_REPRESENTATION_CONTEXT() REPRESENTATION_CONTEXT('2D SPACE',''
  ) );
#864 = PCURVE('',#438,#865);
#865 = DEFINITIONAL_REPRESENTATION('',(#866),#870);
#866 = LINE('',#867,#868);
#867 = CARTESIAN_POINT('',(-0.,0.));
#868 = VECTOR('',#869,1.);
#869 = DIRECTION('',(-0.,-1.));
#870 = ( GEOMETRIC_REPRESENTATION_CONTEXT(2) 
PARAMETRIC_REPRESENTATION_CONTEXT() REPRESENTATION_CONTEXT('2D SPACE',''
  ) );
#871 = ORIENTED_EDGE('',*,*,#417,.T.);
#872 = ORIENTED_EDGE('',*,*,#849,.T.);
#873 = ORIENTED_EDGE('',*,*,#874,.T.);
#874 = EDGE_CURVE('',#850,#850,#875,.T.);
#875 = SURFACE_CURVE('',#876,(#881,#888),.PCURVE_S1.);
#876 = CIRCLE('',#877,10.825);
#877 = AXIS2_PLACEMENT_3D('',#878,#879,#880);
#878 = CARTESIAN_POINT('',(0.,0.,15.));
#879 = DIRECTION('',(0.,0.,1.));
#880 = DIRECTION('',(1.,0.,0.));
#881 = PCURVE('',#438,#882);
#882 = DEFINITIONAL_REPRESENTATION('',(#883),#887);
#883 = LINE('',#884,#885);
#884 = CARTESIAN_POINT('',(-0.,-16.));
#885 = VECTOR('',#886,1.);
#886 = DIRECTION('',(-1.,0.));
#887 = ( GEOMETRIC_REPRESENTATION_CONTEXT(2) 
PARAMETRIC_REPRESENTATION_CONTEXT() REPRESENTATION_CONTEXT('2D SPACE',''
  ) );
#888 = PCURVE('',#889,#894);
#889 = PLANE('',#890);
#890 = AXIS2_PLACEMENT_3D('',#891,#892,#893);
#891 = CARTESIAN_POINT('',(-7.579344845484E-16,1.073975582404E-15,15.));
#892 = DIRECTION('',(0.,0.,1.));
#893 = DIRECTION('',(1.,0.,-0.));
#894 = DEFINITIONAL_REPRESENTATION('',(#895),#899);
#895 = CIRCLE('',#896,10.825);
#896 = AXIS2_PLACEMENT_2D('',#897,#898);
#897 = CARTESIAN_POINT('',(7.579344845484E-16,-1.073975582404E-15));
#898 = DIRECTION('',(1.,0.));
#899 = ( GEOMETRIC_REPRESENTATION_CONTEXT(2) 
PARAMETRIC_REPRESENTATION_CONTEXT() REPRESENTATION_CONTEXT('2D SPACE',''
  ) );
#900 = FACE_BOUND('',#901,.T.);
#901 = EDGE_LOOP('',(#902));
#902 = ORIENTED_EDGE('',*,*,#529,.F.);
#903 = FACE_BOUND('',#904,.T.);
#904 = EDGE_LOOP('',(#905));
#905 = ORIENTED_EDGE('',*,*,#677,.T.);
#906 = ADVANCED_FACE('',(#907,#910),#489,.T.);
#907 = FACE_BOUND('',#908,.T.);
#908 = EDGE_LOOP('',(#909));
#909 = ORIENTED_EDGE('',*,*,#474,.T.);
#910 = FACE_BOUND('',#911,.T.);
#911 = EDGE_LOOP('',(#912));
#912 = ORIENTED_EDGE('',*,*,#913,.T.);
#913 = EDGE_CURVE('',#914,#914,#916,.T.);
#914 = VERTEX_POINT('',#915);
#915 = CARTESIAN_POINT('',(4.5,0.,34.));
#916 = SURFACE_CURVE('',#917,(#922,#933),.PCURVE_S1.);
#917 = CIRCLE('',#918,4.5);
#918 = AXIS2_PLACEMENT_3D('',#919,#920,#921);
#919 = CARTESIAN_POINT('',(0.,0.,34.));
#920 = DIRECTION('',(0.,0.,-1.));
#921 = DIRECTION('',(1.,0.,0.));
#922 = PCURVE('',#489,#923);
#923 = DEFINITIONAL_REPRESENTATION('',(#924),#932);
#924 = ( BOUNDED_CURVE() B_SPLINE_CURVE(2,(#925,#926,#927,#928,#929,#930
,#931),.UNSPECIFIED.,.T.,.F.) B_SPLINE_CURVE_WITH_KNOTS((1,2,2,2,2,1),(
    -2.094395102393,0.,2.094395102393,4.188790204786,6.28318530718,
8.377580409573),.UNSPECIFIED.) CURVE() GEOMETRIC_REPRESENTATION_ITEM() 
RATIONAL_B_SPLINE_CURVE((1.,0.5,1.,0.5,1.,0.5,1.)) REPRESENTATION_ITEM(
  '') );
#925 = CARTESIAN_POINT('',(4.5,0.));
#926 = CARTESIAN_POINT('',(4.5,-7.79422863406));
#927 = CARTESIAN_POINT('',(-2.25,-3.89711431703));
#928 = CARTESIAN_POINT('',(-9.,-1.102182119233E-15));
#929 = CARTESIAN_POINT('',(-2.25,3.89711431703));
#930 = CARTESIAN_POINT('',(4.5,7.79422863406));
#931 = CARTESIAN_POINT('',(4.5,0.));
#932 = ( GEOMETRIC_REPRESENTATION_CONTEXT(2) 
PARAMETRIC_REPRESENTATION_CONTEXT() REPRESENTATION_CONTEXT('2D SPACE',''
  ) );
#933 = PCURVE('',#934,#939);
#934 = CYLINDRICAL_SURFACE('',#935,4.5);
#935 = AXIS2_PLACEMENT_3D('',#936,#937,#938);
#936 = CARTESIAN_POINT('',(0.,0.,10.));
#937 = DIRECTION('',(-0.,-0.,-1.));
#938 = DIRECTION('',(1.,0.,0.));
#939 = DEFINITIONAL_REPRESENTATION('',(#940),#944);
#940 = LINE('',#941,#942);
#941 = CARTESIAN_POINT('',(-6.28318530718,-24.));
#942 = VECTOR('',#943,1.);
#943 = DIRECTION('',(1.,-0.));
#944 = ( GEOMETRIC_REPRESENTATION_CONTEXT(2) 
PARAMETRIC_REPRESENTATION_CONTEXT() REPRESENTATION_CONTEXT('2D SPACE',''
  ) );
#945 = ADVANCED_FACE('',(#946,#949),#889,.F.);
#946 = FACE_BOUND('',#947,.F.);
#947 = EDGE_LOOP('',(#948));
#948 = ORIENTED_EDGE('',*,*,#874,.T.);
#949 = FACE_BOUND('',#950,.F.);
#950 = EDGE_LOOP('',(#951));
#951 = ORIENTED_EDGE('',*,*,#952,.T.);
#952 = EDGE_CURVE('',#953,#953,#955,.T.);
#953 = VERTEX_POINT('',#954);
#954 = CARTESIAN_POINT('',(4.5,0.,15.));
#955 = SURFACE_CURVE('',#956,(#961,#972),.PCURVE_S1.);
#956 = CIRCLE('',#957,4.5);
#957 = AXIS2_PLACEMENT_3D('',#958,#959,#960);
#958 = CARTESIAN_POINT('',(0.,0.,15.));
#959 = DIRECTION('',(0.,0.,-1.));
#960 = DIRECTION('',(1.,0.,0.));
#961 = PCURVE('',#889,#962);
#962 = DEFINITIONAL_REPRESENTATION('',(#963),#971);
#963 = ( BOUNDED_CURVE() B_SPLINE_CURVE(2,(#964,#965,#966,#967,#968,#969
,#970),.UNSPECIFIED.,.T.,.F.) B_SPLINE_CURVE_WITH_KNOTS((1,2,2,2,2,1),(
    -2.094395102393,0.,2.094395102393,4.188790204786,6.28318530718,
8.377580409573),.UNSPECIFIED.) CURVE() GEOMETRIC_REPRESENTATION_ITEM() 
RATIONAL_B_SPLINE_CURVE((1.,0.5,1.,0.5,1.,0.5,1.)) REPRESENTATION_ITEM(
  '') );
#964 = CARTESIAN_POINT('',(4.5,-1.073975582404E-15));
#965 = CARTESIAN_POINT('',(4.5,-7.79422863406));
#966 = CARTESIAN_POINT('',(-2.25,-3.89711431703));
#967 = CARTESIAN_POINT('',(-9.,-2.176157701637E-15));
#968 = CARTESIAN_POINT('',(-2.25,3.89711431703));
#969 = CARTESIAN_POINT('',(4.5,7.79422863406));
#970 = CARTESIAN_POINT('',(4.5,-1.073975582404E-15));
#971 = ( GEOMETRIC_REPRESENTATION_CONTEXT(2) 
PARAMETRIC_REPRESENTATION_CONTEXT() REPRESENTATION_CONTEXT('2D SPACE',''
  ) );
#972 = PCURVE('',#934,#973);
#973 = DEFINITIONAL_REPRESENTATION('',(#974),#978);
#974 = LINE('',#975,#976);
#975 = CARTESIAN_POINT('',(-6.28318530718,-5.));
#976 = VECTOR('',#977,1.);
#977 = DIRECTION('',(1.,-0.));
#978 = ( GEOMETRIC_REPRESENTATION_CONTEXT(2) 
PARAMETRIC_REPRESENTATION_CONTEXT() REPRESENTATION_CONTEXT('2D SPACE',''
  ) );
#979 = ADVANCED_FACE('',(#980),#934,.F.);
#980 = FACE_BOUND('',#981,.T.);
#981 = EDGE_LOOP('',(#982,#983,#1004,#1005));
#982 = ORIENTED_EDGE('',*,*,#952,.T.);
#983 = ORIENTED_EDGE('',*,*,#984,.T.);
#984 = EDGE_CURVE('',#953,#914,#985,.T.);
#985 = SEAM_CURVE('',#986,(#990,#997),.PCURVE_S1.);
#986 = LINE('',#987,#988);
#987 = CARTESIAN_POINT('',(4.5,0.,10.));
#988 = VECTOR('',#989,1.);
#989 = DIRECTION('',(0.,0.,1.));
#990 = PCURVE('',#934,#991);
#991 = DEFINITIONAL_REPRESENTATION('',(#992),#996);
#992 = LINE('',#993,#994);
#993 = CARTESIAN_POINT('',(-6.28318530718,0.));
#994 = VECTOR('',#995,1.);
#995 = DIRECTION('',(-0.,-1.));
#996 = ( GEOMETRIC_REPRESENTATION_CONTEXT(2) 
PARAMETRIC_REPRESENTATION_CONTEXT() REPRESENTATION_CONTEXT('2D SPACE',''
  ) );
#997 = PCURVE('',#934,#998);
#998 = DEFINITIONAL_REPRESENTATION('',(#999),#1003);
#999 = LINE('',#1000,#1001);
#1000 = CARTESIAN_POINT('',(-0.,0.));
#1001 = VECTOR('',#1002,1.);
#1002 = DIRECTION('',(-0.,-1.));
#1003 = ( GEOMETRIC_REPRESENTATION_CONTEXT(2) 
PARAMETRIC_REPRESENTATION_CONTEXT() REPRESENTATION_CONTEXT('2D SPACE',''
  ) );
#1004 = ORIENTED_EDGE('',*,*,#913,.F.);
#1005 = ORIENTED_EDGE('',*,*,#984,.F.);
#1006 = ( GEOMETRIC_REPRESENTATION_CONTEXT(3) 
GLOBAL_UNCERTAINTY_ASSIGNED_CONTEXT((#1010)) 
GLOBAL_UNIT_ASSIGNED_CONTEXT((#1007,#1008,#1009)) REPRESENTATION_CONTEXT
('Context #1','3D Context with UNIT and UNCERTAINTY') );
#1007 = ( LENGTH_UNIT() NAMED_UNIT(*) SI_UNIT(.MILLI.,.METRE.) );
#1008 = ( NAMED_UNIT(*) PLANE_ANGLE_UNIT() SI_UNIT($,.RADIAN.) );
#1009 = ( NAMED_UNIT(*) SI_UNIT($,.STERADIAN.) SOLID_ANGLE_UNIT() );
#1010 = UNCERTAINTY_MEASURE_WITH_UNIT(LENGTH_MEASURE(1.E-07),#1007,
  'distance_accuracy_value','confusion accuracy');
#1011 = PRODUCT_RELATED_PRODUCT_CATEGORY('part',$,(#7));
ENDSEC;
END-ISO-10303-21;
